<?xml version="1.0" encoding="utf-8"?>
<!-- Generator: Adobe Illustrator 18.1.1, SVG Export Plug-In . SVG Version: 6.00 Build 0)  -->
<svg version="1.1" id="Слой_1" xmlns="http://www.w3.org/2000/svg" xmlns:xlink="http://www.w3.org/1999/xlink" x="0px" y="0px"
	 viewBox="0 0 70.9 75.3" enable-background="new 0 0 70.9 75.3" xml:space="preserve">
<g>
	<path fill="#414042" d="M68,11c-1.2,0.3-2.5,0.7-3,0.7c-0.2,0-0.2,0-0.2,0c-0.1-0.3,1.2-1,2.3-1.7c0.8-0.5,1.7-1,2.4-1.5
		c0.9-0.7,1.5-1.3,1.4-1.6c0-0.1-0.1-0.1-0.1-0.1c-0.3,0-1.1,0.4-2.9,1.4l0,0c-1.9,1.1-4.1,2.2-4.6,2.2c0,0,0,0,0,0
		c-0.2-0.2,0.6-0.8,1.4-1.4c0.7-0.5,1.5-1.1,2.2-1.8c2.6-2.7,2.7-3.3,2.5-3.5c0,0-0.1-0.1-0.2-0.1c-0.4,0-1.4,0.9-2.7,2.1
		c-0.3,0.3-0.7,0.6-1,0.9c-1.7,1.5-3.6,2.8-4,2.8c-0.1-0.2,0.4-0.6,1-1.2c0.6-0.6,1.5-1.4,2.1-2.3C65.9,3.7,67,1,66.6,0.7
		c0,0-0.1,0-0.1,0c-0.2,0-0.7,0.6-1.5,1.9c-0.6,0.8-1.2,1.8-2,2.8c-1.7,2.2-3.6,3.8-3.9,3.9C59.1,9,59.5,8.5,60,7.9
		c0.7-0.8,1.5-1.8,2.2-3.1c1-1.9,1.6-4.1,1.2-4.5c0,0-0.1,0-0.1,0c-0.2,0-0.5,0.6-1.2,1.9c-0.4,0.8-0.8,1.7-1.4,2.6
		c-1.5,2.7-3.5,5-3.9,5c-0.1-0.1,0.3-0.7,0.6-1.2c0.4-0.6,0.8-1.4,1.2-2.2c0.7-1.6,1.1-3.7,0.8-3.8c0,0,0,0-0.1,0
		c-0.2,0-0.5,0.6-1,1.9c-0.2,0.4-0.3,0.8-0.5,1.2C57,7.6,56,9.6,55.7,9.9c-0.4,0.4-0.9,0.9-1.5,1.4c-0.3,0.3-0.6,0.6-1,0.9
		c-0.5,0.4-2.6,1.7-4.8,3c-2.3,1.4-4.7,2.8-5.5,3.5c-0.6,0.5-1.7,1.6-2.9,2.8c-1.7,1.8-3.7,3.8-4.2,3.8c-0.3,0-0.6,0.1-1.1,0.3
		c-0.8,0.2-1.7,0.5-2.4,0.5c-0.2,0-0.3,0-0.5-0.1c-0.9-0.3-2.8-1.7-2.8-1.7c0,0-0.8-0.9-1.6-1.2C27.3,23,26.9,23,26.5,23
		c-0.4,0-0.7,0.1-0.8,0.1c-0.1,0-0.4-0.1-0.8-0.1c-0.7,0-1.8,0.3-1.8,2V25l0.1,0c0.9-0.1,1.2,0.3,1.4,0.7c0.1,0.1,0.1,0.2,0.2,0.2
		c0.1,0.1,0.3,0.2,0.5,0.4c0.2,0.2,0.5,0.3,0.5,0.4c0,0,0.1,0.2,0.2,0.3c0.7,1.4,0.9,2.2,0.9,2.3c-0.1,0.1-0.4,0.3-1.5,0.4
		c-0.1,0-0.1,0-0.3,0c-0.5,0-1.5,0.1-2.7,0.2c-0.5,0.1-1,0.2-1.6,0.3c-0.6,0.2-1.3,0.3-1.9,0.4c-1.3,0.2-2.5,0.3-3.2,0.3
		c-0.3,0-0.5,0-0.6,0c-0.2,0-0.6,0.1-1.1,0.2c-1,0.2-2.3,0.5-3.1,0.5c-0.1,0-0.2,0-0.3,0c-0.5-0.1-0.9-0.3-1.1-0.4
		c-0.2-0.1-0.3-0.2-0.4-0.2c-0.1,0-0.2,0.1-0.2,0.2c-0.2,0.3,0.1,0.5,0.4,0.7c0.1,0.1,0.2,0.1,0.2,0.2c0,0,0,0,0,0
		c-0.1,0.1-0.7,0.2-1.7,0.2c-0.7,0-1.4-0.1-1.9-0.2c-0.5-0.1-1.8-1.2-2.3-1.9c-0.3-0.5-0.3-0.9-0.3-1.1c0-0.2,0-0.3-0.1-0.4
		c-0.1-0.1-0.2-0.2-0.4-0.3c-0.3-0.2-0.5-0.4-0.7-0.7c-0.1-0.2-0.2-0.5-0.3-0.7c-0.1-0.2-0.1-0.3-0.2-0.4c-0.1-0.1-0.2-0.1-0.3-0.2
		c-0.1,0-0.2-0.1-0.3-0.1c-0.1-0.1-0.2-0.2-0.3-0.3C0.4,26.1,0.4,26,0.3,26c0,0-0.1,0-0.1,0.1l0,0l0,0c0.2,2.8,1.2,3.8,2.4,5.1
		c0.2,0.2,0.4,0.5,0.7,0.7c0.9,1.1,2.5,1.4,3.6,1.7c0.6,0.1,1.2,0.3,1.2,0.5c0,0.1,0,0.2-0.1,0.3c-0.1,0.2-0.4,0.2-0.6,0.2
		c-0.2,0-0.3,0-0.4,0.1c0,0,0,0.1,0,0.1c0.1,0.2,0.8,0.4,1.4,0.5c0.3,0,0.6,0,0.9,0c0.5,0,0.9,0,1,0.2c0.1,0.2-0.3,0.6-0.5,0.9
		c-0.3,0.4-0.6,0.7-0.5,0.9c0,0,0,0,0.4,1.1c-3.4,4-5.3,9.2-5.3,14.4c0,12.4,10.1,22.4,22.4,22.4C39,75.3,49,65.3,49,52.9
		c0-0.7,0-1.5-0.1-2.2c0.1-0.2,0.2-0.5,0.2-0.8c0-0.1,0.1-0.4,0.1-0.4c0.1,0,0.3,0.1,0.4,0.2c0.3,0.2,0.7,0.4,1,0.4
		c0.1,0,0.1,0,0.2-0.1c0.3-0.2,0.2-0.6,0.2-1c0-0.1,0-0.3,0-0.3c0.1,0,0.2,0.1,0.4,0.2c0.3,0.2,0.8,0.5,1.1,0.5c0.1,0,0.2,0,0.3-0.1
		c0.4-0.2,0.1-1-0.1-1.6c-0.1-0.2-0.2-0.4-0.1-0.5c0,0,0,0,0,0c0.1,0,0.1,0,0.2,0c0.2,0,0.4,0.1,0.6,0.1c0.3,0,0.6-0.1,0.8-0.3
		c0.4-0.5-0.1-1.1-0.4-1.5c-0.1-0.1-0.2-0.3-0.2-0.3c0,0,0.1,0,0.2,0c0.2,0,0.5,0,0.7-0.3c0.2-0.3-0.1-0.7-0.4-1.1
		c-0.1-0.1-0.2-0.3-0.2-0.3c0,0,0.2-0.1,0.3-0.1c0.3-0.1,0.6-0.3,0.8-0.6c0.1-0.3-0.2-0.5-0.4-0.7c-0.1-0.1-0.2-0.2-0.2-0.2
		c0,0,0.2-0.1,0.3-0.2c0.3-0.2,0.8-0.5,0.7-0.9c0-0.2-0.7-0.4-2.5-0.9c-1-0.3-2.2-0.7-3.3-1.1c-2.5-0.9-4.8-2.1-4.9-2.2
		c-0.1-0.2-0.1-0.4,0-0.5c0.1-0.1,0.1-0.1,0.3-0.1c0.1,0,0.3,0.1,0.4,0.1c0.3,0.1,0.7,0.2,1,0.2c0.2,0,0.3,0,0.4-0.1
		c0.5-0.3,0.3-0.7,0.1-1c-0.1-0.1-0.1-0.3-0.1-0.3c0.1-0.2,0.4-0.4,0.5-0.5c0,0,0.1-0.1,0.1-0.1c0,0,0,0,0.1,0.1
		c0.1,0.1,0.2,0.3,0.4,0.3c0,0,0.1,0,0.1,0c0.3-0.1,0.5-0.5,0.6-0.7c0.1,0.1,0.2,0.1,0.4,0.1c0.2,0,0.3-0.1,0.5-0.2
		c0.4-0.3,0.4-1,0.4-1.2c0.2,0.1,0.7,0.3,1.2,0.3c0.1,0,0.2,0,0.3,0c0.4-0.1,0.5-0.6,0.5-0.9c0-0.1,0-0.1,0-0.1c0,0,0.1,0,0.2,0
		c0.1,0,0.3,0.1,0.4,0.1c0.1,0,0.3,0,0.4-0.1c0.2-0.1,0.3-0.4,0.3-0.6c0-0.2,0.1-0.3,0.2-0.4c0.1-0.1,0.3,0,0.5,0
		c0.2,0,0.4,0.1,0.5,0c0.1-0.1,0.1-0.3,0.2-0.4c0-0.1,0-0.2,0.1-0.2c0.1-0.1,0.6-0.6,0.7-0.7c0.2,0,1.2-0.3,1.4-0.7
		c0.2-0.2,0.1-0.5,0-0.8c0-0.2-0.1-0.3,0-0.4c0.1-0.3,0.4-0.7,0.7-0.7c0.1,0,0.2,0,0.4,0.1c0.2,0.1,0.3,0.1,0.6,0.1
		c0.2,0,0.4-0.1,0.6-0.2c0.3-0.2,0.4-0.4,0.4-0.6c0,0,0-0.1,0-0.1c0.2,0,0.7-0.1,1.1-0.3c0.3-0.2,0.2-0.5,0.1-0.8
		c0-0.1-0.1-0.3,0-0.3c0.1-0.1,0.3-0.1,0.5-0.2c0.3-0.1,0.6-0.2,0.8-0.3c0.1-0.1,0.1-0.3,0.1-0.5c0-0.2,0-0.3,0.1-0.4
		c0.1-0.1,0.3-0.2,0.5-0.2c0.2-0.1,0.5-0.1,0.6-0.3c0.1-0.2,0-0.5-0.1-0.7c-0.1-0.2-0.2-0.3-0.1-0.4c0.1-0.1,0.2-0.2,0.4-0.3
		c0.1,0,0.2-0.1,0.2-0.1c0.1-0.1,0.1-0.3,0.1-0.4c0-0.1-0.1-0.3,0-0.4c0.1-0.1,0.3-0.2,0.5-0.3c0.3-0.1,0.6-0.2,0.8-0.5
		c0.2-0.2,0.1-0.5,0-0.7c0-0.1-0.1-0.2,0-0.3c0,0,0.2-0.1,0.4-0.1c0.4-0.1,1-0.3,1.1-0.7c0.1-0.4-0.3-0.6-0.5-0.8
		c-0.2-0.1-0.3-0.2-0.3-0.3c0,0,0.2-0.1,0.4-0.1c0.3-0.1,0.6-0.1,0.9-0.2c0.5-0.2,1-0.6,0.9-1.1c-0.1-0.6-0.5-0.6-0.7-0.7
		c-0.2,0-0.3-0.1-0.3-0.2c0-0.2,0.4-0.3,0.8-0.5c0.1-0.1,0.3-0.1,0.4-0.2c0.6-0.3,1.2-0.9,1.2-1.2c0-0.3-0.4-0.3-0.5-0.3
		c-0.2,0-0.5,0-0.7,0.1c-0.2,0-0.4,0.1-0.6,0.1c-0.1,0-0.2,0-0.2,0c0,0,0,0,0,0c0.1-0.2,0.9-0.7,1.6-1l0.2-0.1
		c0.3-0.2,0.6-0.3,0.8-0.4c0.8-0.4,1.1-0.6,1.1-0.7c0-0.1-0.2-0.1-0.2-0.1C70.2,10.4,69.1,10.7,68,11z M14,52.1l0.2-1.6l0.1-0.3h0.7
		L14.7,52L14,52.1z M14,53.7l0.7,0.1l0.2,1.6l0,0.2h-0.7l-0.1-0.3L14,53.7z M14.4,49.6l0.2-0.7l0.6-1.7h0.6l-0.5,1.5L15,49.6H14.4z
		 M16.5,45.6l-0.5,1h-0.5l0.4-0.7l0.9-1.3l0.4-0.4h0.2l0,0L16.5,45.6z M18,62.3l0.4,0.5L18,62.5l-0.1-0.1H18z M16.9,54.1l0.1,1.4
		l0,0.2l-1.5,0l-0.1-0.4l-0.1-1.4L16.9,54.1z M15.3,51.9l0.2-1.5l0.1-0.3H17l-0.1,1.5L15.3,51.9z M19.3,46.5h-0.7l0.2-0.6L19.3,46.5
		z M23.9,46.5l0.4-2.4l1,0L25,46.5H23.9z M19.2,59.3l-0.4,0.5l-0.2-0.5H19.2z M21.4,59.3h1.9l0.4,2.2l0.1,0.2h-1.8l-0.2-0.4
		l-0.6-1.8L21.4,59.3z M21.6,56.3l-0.9,1.2l-0.2-1.2H21.6z M17.5,51.6l0.1-1.5h2.1l0,1.2L17.5,51.6z M19.7,54.4l0,1l0,0.2h-2.1
		l-0.1-0.3l-0.1-1.2L19.7,54.4z M17.7,49.6l0.1-0.7l0.5-1.7h1.4l0.4,0.5l-0.3,1.9H17.7z M19.8,56.3l0.3,1.9l-0.4,0.6h-1.3L17.9,57
		l-0.1-0.7H19.8z M22.7,54.8l-0.6,0.8h-1.7l-0.1-1.1L22.7,54.8z M23.2,47.2l-0.1,0.6l-0.8-0.6H23.2z M23.1,58l0.1,0.7h-1L23.1,58z
		 M20.3,51.3l0.1-1.1h1.8l0.6,0.8L20.3,51.3z M23.3,46.5h-1.8l-0.4-0.3l0.6-1.8l0.2-0.3h1.8L23.3,46.5z M20.4,49.6l0.2-1.3l1,1.3
		L20.4,49.6z M20.6,59.9l0.5,1.6l0.1,0.1h-1.4l-0.5-0.8L20.6,59.9z M23.7,48.2l0.1-1l0-0.1l1.1,0L24.7,49L23.7,48.2z M24.7,56.8
		l0.2,1.9h-1.1l-0.1-1.2L24.7,56.8z M19.4,44.9l0.4-0.8h1.3l0,0.2l-0.5,1.6L19.4,44.9z M17.1,56.3l0.1,0.8l0.4,1.6l-1.3,0l-0.1-0.2
		L15.8,57l-0.1-0.7H17.1z M18,59.3l0.5,1l-0.6,0.8L17,59.9l-0.3-0.6H18z M18.9,61.3l0.2,0.4l0,0h-0.8L18.9,61.3z M24.3,61.7
		l-0.4-2.4H25l0.3,2.4H24.3z M16.7,46.5l0.3-0.7l0.8-1.2l0.6,0.8l-0.5,1.1H16.7z M16.4,47.2h1.3l-0.4,1.5l-0.2,0.9H16h-0.3l0.2-0.7
		l0.5-1.5L16.4,47.2z M16.1,59.3l0.4,0.9l0.9,1.4l0,0l0,0l-0.1,0l-0.4-0.4l-0.9-1.3l-0.4-0.6H16.1z M19.5,62.3l0.3,0.5l0.9,1.1
		l0.6,0.6l-0.2-0.1L20,63.5l-1.1-1.1l-0.1-0.1H19.5z M21.5,62.3l0.9,1.6l0.7,0.8h-0.3l-0.5-0.3l-0.9-0.9l-1-1.2H21.5z M22.2,62.3
		h1.7l0.4,1.5l0.4,0.9h-0.7l-0.3-0.3l-1.3-1.9L22.2,62.3z M24.3,41.9l-0.4,1.6h-1.7l0.1-0.3l0.7-1.1l0.6-0.8l0.3-0.2l0.8,0
		L24.3,41.9z M22.4,41.9l-0.8,1.4l-0.1,0.2h-1.3l0.2-0.2l0.9-1.1l0.9-0.9l0.4-0.3l0.4,0L22.4,41.9z M20.8,41.8l-0.9,1.1l-0.4,0.6
		h-0.8l0.2-0.2l1.1-1l1.5-1.1l0.1-0.1l0,0L20.8,41.8z M17.9,43.5l-0.2,0l0.2-0.2l0.4-0.3L17.9,43.5z M15.1,56.3l0.7,2.4h-0.5
		l-0.1-0.2L14.6,57l-0.2-0.7H15.1z M25.4,62.3l0.3,2.4h-0.3l-0.5-1.1l-0.4-1.4H25.4z M25.4,43.5h-0.9l0.4-1.4l0.4-0.8l0.1-0.1h0.4
		L25.4,43.5z M12.9,53.6v0.2l0.2,1.7l0.4,1.7l0.6,1.6l0.2,0.3l0,0.1l0.1,0l0.6,1l1,1.4l0.3,0.3l0,0l0,0.1l0.1,0.2l0.2,0.1l0.1,0.1
		l-0.9,1.1l1.1-0.9l0.2,0.2l1.3,1.1l1.4,0.9l0.6,0.3l0.1,0.1l0.1,0l0.1,0l0.7,0.3l1.7,0.5l1.7,0.3l1,0.1l0.3,2.8
		c-8.9-0.2-15.9-7.2-16.1-16.1L12.9,53.6z M25.9,39.2l-0.8,0l-0.1,0l-0.1,0l-1.7,0.3l-1.7,0.5L20,40.9l-1.5,0.9l-1.3,1.1L17,43.1
		l-1.1-0.8l0.8,1.1l-0.2,0.2l-0.1,0l-0.1,0.1l0,0.1L16,44.1l-1,1.4l-0.6,1.2l0,0l-0.2,0.3l-0.6,1.6l-0.3,1.1l0,0l-0.1,0.5L12.9,52
		v0.2l-2.8,0.3c0.2-8.9,7.2-15.9,16.1-16.1L25.9,39.2z M40.1,50.3l-0.4-1.7L39,47l-0.1-0.2l0-0.1l-0.7-1.2l-0.3-0.5l0,0l-0.6-0.9
		l-0.4-0.4l0-0.1l-0.1-0.1l-0.1-0.1l-0.2-0.2l0.8-1.1l-1.1,0.8L36,42.9l-1.3-1.1l-1.5-0.9l-1.5-0.7L30,39.6l-1.7-0.3l-1-0.1
		l-0.3-2.8c8.9,0.2,15.9,7.2,16.1,16.1l-2.8-0.3V52L40.1,50.3z M37.2,46.5l-1.4-2.4l0,0H36l0.3,0.4l0.9,1.3l0.4,0.7H37.2z
		 M28.3,40.5l-0.1-0.3l-0.1-0.1l0.1,0l0.5,0.3H28.3z M38.1,49.6L38,48.7l-0.5-1.5l0.5,0l0.1,0.1l0.6,1.5l0.2,0.7H38.1z M38.8,56.3
		l-0.2,0.7L38,58.7h-0.6l0.6-1.6l0.2-0.8H38.8z M37.6,59.3l-0.3,0.6l-0.9,1.3l-0.4,0.5h-0.1l0-0.1l0.9-1.4l0.5-0.9H37.6z M35.4,62.3
		l-0.1,0.1l-0.4,0.3l0.4-0.5H35.4z M27.8,43.5l-0.3-2.4h0.4l0.1,0.1l0.8,2.3H27.8z M37.9,53.9l-0.2,1.4l-0.1,0.4l-0.2,0h-1.2
		l0.2-1.6L37.9,53.9z M36.3,51.7l-0.1-1.5l0,0h1.5l0.1,0.3l0.2,1.5L36.3,51.7z M33.9,46.5l0.5-0.6l0.2,0.6H33.9z M34,59.3h0.6
		l-0.2,0.5L34,59.3z M31.7,46.5H30l-0.4-2.4h1.8l0.6,1.7l0.1,0.4L31.7,46.5z M31.8,59.3l0.3,0.2L32,60l-0.7,1.7h-1.8l0.4-2.4H31.8z
		 M32.8,56.3l-0.2,1.2l-1-1.2H32.8z M30.1,58l0.9,0.7h-1L30.1,58z M30.5,51l0.6-0.8l1.8,0l0.1,1.1L30.5,51z M32.9,54.5l0,0.8l0,0.3
		h-1.7l-0.6-0.8L32.9,54.5z M33.4,56.3h2.1l-0.6,2.4l-0.3,0h-1l-0.4-0.5L33.4,56.3z M30,47.2l0.9,0l-0.8,0.6L30,47.2z M35.7,54.2
		l-0.2,1.5l-0.3,0h-1.8l0-0.2l0-1L35.7,54.2z M33.5,51.4l-0.1-1.2h2.1l0,0.3l0.1,1.2L33.5,51.4z M33.4,49.6l-0.3-1.9l0.4-0.5h1.4
		l0.5,1.7l0.1,0.7H33.4z M31.6,49.6l1-1.3l0.2,1.3H31.6z M32.1,61.5l0.5-1.6l1.3,1l-0.2,0.4l-0.3,0.4H32L32.1,61.5z M32.6,45.9
		l-0.5-1.6l0-0.1h1.4l0.2,0.4l0.2,0.4L32.6,45.9z M28.2,46.5l-0.3-2.4h1l0.4,2.4H28.2z M28.5,49l-0.2-1.9h1.1l0.1,1.1L28.5,49z
		 M29.5,57.6l-0.1,1.1h-1.1l0.2-1.9L29.5,57.6z M29.3,59.3l-0.4,2.4h-1l0.3-2.4H29.3z M34.9,61.7h-0.8l0.1-0.1l0.1-0.3L34.9,61.7z
		 M34.8,60.3l0.5-1h1.2l-0.3,0.6l-0.8,1.2L34.8,60.3z M36.7,58.7h-1.2l0.6-2.4h1.4l-0.1,0.7l-0.5,1.5L36.7,58.7z M36.1,49.6
		l-0.1-0.9l-0.4-1.5h1.3l0.6,1.7l0.2,0.7H36.1z M35.3,46.5l-0.5-1.1l0.6-0.8l0.8,1.2l0.3,0.7H35.3z M29.4,43.5l-0.5-1.6l-0.3-0.8
		l0.8,0l0.2,0.2l0.7,0.9l0.8,1.3H29.4z M29.3,62.3H31l-0.7,1.2l-0.7,0.9l-0.3,0.3l-0.7,0L29.3,62.3z M30.8,63.9l0.7-1.1l0.2-0.5
		l1.3,0l-1,1.2l-1,0.9l-0.5,0.3h-0.3L30.8,63.9z M32.4,63.9l0.9-1.1l0.3-0.5l0.1,0h0.7l-0.1,0.1l-1.1,1.1L32,64.4l-0.3,0.2
		L32.4,63.9z M33.7,43.5l-0.4-0.6l-0.9-1.1l-0.6-0.6l0.2,0.1l1.2,0.9l1.1,1.1l0.2,0.2H33.7z M31.7,43.5l-0.9-1.6l-0.6-0.7h0.4
		l0.4,0.2l1,0.9l0.9,1.1l0.2,0.2H31.7z M27.8,62.3h0.9L28,64.5l-0.1,0.2h-0.3L27.8,62.3z M38.3,50.2H39l0.1,0.3l0.2,1.6v0L38.5,52
		l-0.2-1.5l0-0.1L38.3,50.2z M39.2,53.7L39,55.3L39,55.7h-0.7l0.1-0.2l0.2-1.6L39.2,53.7z M26.9,69.4l0.4-2.8l1-0.1l1.7-0.3l1.6-0.5
		l0.7-0.3h0.1l0.1,0l0.1-0.1l0.5-0.3l1.5-0.9l1.3-1.1l0.2-0.2l1.1,0.8l-0.8-1.1l0.1-0.1l0.2-0.1l0.1-0.2l0-0.1l0,0l0.3-0.3l1-1.4
		l0.6-1l0.1,0l0-0.1l0-0.1l0.2-0.3l0.6-1.6l0.2-0.8l0,0l0.2-0.8l0.2-1.7v-0.2l2.8-0.3C42.9,62.1,35.8,69.2,26.9,69.4z"/>
	<g>
		<radialGradient id="SVGID_1_" cx="24.0434" cy="49.1994" r="18.836" gradientUnits="userSpaceOnUse">
			<stop  offset="5.617980e-003" style="stop-color:#FFFCD7"/>
			<stop  offset="0.4037" style="stop-color:#C6C192"/>
			<stop  offset="1" style="stop-color:#867039"/>
		</radialGradient>
		<path fill="url(#SVGID_1_)" d="M36.5,43.4L36.5,43.4l-0.1-0.2l-0.1-0.1l-0.6-0.6l-1.3-1.1l-1.5-0.9l-1.5-0.7l-1.6-0.5l-1.7-0.3
			l-1.7-0.1l-1.5,0.1l-0.1,0h-0.1L23,39.3l-1.7,0.5l-1.5,0.7l-1.4,0.9L17,42.5l-0.6,0.7l-0.1,0l-0.1,0.1l0,0.1l-0.4,0.4l-1,1.4
			l-0.6,1.2l0,0.1L14,46.7l-0.6,1.6l-0.3,1.1l0,0.1l-0.1,0.5l-0.2,1.7v0.8l0,0.1l0,0.1l0,0v0.8l0.2,1.7l0.4,1.7l0.6,1.6l0.2,0.3
			l0,0.1l0.1,0l0.6,1l1,1.4l0.4,0.4l0,0l0,0.1l0.1,0.1l0,0.1l0.2,0.1l0.6,0.6l1.3,1.1l1.4,0.9l0.6,0.3l0.1,0.1l0.1,0h0.1l0.7,0.3
			l1.7,0.5l1.7,0.3l1.6,0.1l0.1,0h0.1l0,0l1.6-0.1l1.7-0.3l1.6-0.5l0.7-0.3h0.1l0.1,0l0.1-0.1l0.5-0.3l1.5-0.9l1.3-1.1l0.6-0.6
			l0.2-0.1l0.1-0.1l0-0.1l0,0l0.4-0.4l1-1.4l0.6-1l0.1,0l0-0.1v-0.1l0.2-0.3l0.6-1.6l0.2-0.9l0,0l0.2-0.8l0.2-1.7v-0.8l0,0v-0.1l0,0
			v-0.8l-0.2-1.7l-0.4-1.7l-0.6-1.6l-0.1-0.2l0-0.1l-0.7-1.2l-0.3-0.5l-0.1-0.1l-0.6-0.9L36.5,43.4z M35,42.9l0.3,0.3H35l-0.5-0.6
			l-0.9-0.9l0.3,0.2L35,42.9z M35.4,43.7h0.4l0.4,0.4l0.9,1.3l0.4,0.8h-0.6l-1.4-2.4L35.4,43.7z M35.1,44.1l0.9,1.3l0.4,0.8H35
			l-1.1-2.4l-0.1-0.1h1L35.1,44.1z M35.2,46.7h1.4l0.6,1.7l0.2,0.8h-1.6l-0.2-0.9L35.2,46.7z M37.8,46.7l0.1,0.2l0.6,1.5l0.2,0.8
			h-0.8l-0.2-0.9l-0.6-1.6L37.8,46.7z M38,49.9L38,49.7h0.8l0.1,0.3l0.2,1.6v0.6h-0.9v-0.6L38,50.1V49.9z M35.9,49.8L35.9,49.8
			l1.6-0.1l0.1,0.3l0.2,1.6v0.6h-1.7v-0.6L35.9,49.8z M35.1,48.4l0.1,0.8h-2.2l-0.5-2.5h2L35.1,48.4z M35.4,50l0.2,1.6v0.6h-2.3
			l-0.1-2.5h2.2L35.4,50z M39,52.7v0.6L38.8,55l-0.1,0.4h-0.8l0.1-0.3l0.2-1.7v-0.6H39z M37.7,52.7v0.6L37.5,55l-0.1,0.4l-0.3-0.1
			h-1.3l0.2-2v-0.6H37.7z M35.6,52.7v0.6l-0.2,2l-0.3,0h-1.9l0.1-0.3l0.1-2.3H35.6z M35.8,55.8h1.5l-0.2,0.7l-0.5,1.5l-0.1,0.2h-1.4
			L35.8,55.8z M37.1,58.3l0.6-1.6l0.2-0.9h0.8l-0.2,0.7l-0.7,1.8L37.1,58.3L37.1,58.3z M34.9,58.8h1.3L36,59.6l-0.9,1.3l-0.4,0.5h-1
			l0.1-0.2L34.9,58.8z M36.8,58.8h0.6l-0.4,0.7l-0.9,1.3l-0.4,0.5h-0.3l0.1-0.2l0.9-1.4L36.8,58.8z M35.3,61.9L35,62.1l-1.2,1
			l-0.3,0.2l0.9-0.9l0.5-0.6H35.3z M17.7,42.9l1.2-1l0.2-0.2l-0.9,0.9l-0.5,0.7l0,0h-0.3L17.7,42.9z M18.3,43.2l0.3-0.3l1.1-1l1.5-1
			l0.2-0.2l0.1,0.1l-0.9,0.8l-0.9,1.1l-0.4,0.6H18.3z M19.8,43.2l0.2-0.3l0.9-1.1l1-0.9l0.4-0.3l0.5,0l-0.7,0.8l-0.8,1.4l-0.1,0.3
			H19.8z M17.6,44.1l0.3-0.4h1l-0.1,0.1l-1.1,2.4h-1.3l0.4-0.8L17.6,44.1z M20.5,46.9l0-0.1H23l0,0l-0.2,2.5l-2.6,0L20.5,46.9z
			 M18.1,46.7h2l-0.5,2.5h-2.2l0.1-0.8L18.1,46.7z M20.2,46.2h-1.9l0.3-0.8l0.9-1.7h1.4l0,0.2L20.2,46.2z M16.6,44.1l0.4-0.4h0.3
			l-1,1.5l-0.5,1.1l0,0h-0.6l0.4-0.8L16.6,44.1z M16.1,46.9l0.1-0.2h1.4l-0.5,1.6l-0.2,0.9h-1.2v0l0,0h-0.4l0.2-0.8L16.1,46.9z
			 M14.9,46.7h0.7l-0.5,1.6l-0.2,0.9h-0.8l0.2-0.8L14.9,46.7z M13.9,49.7h0.8l-0.2,1.9v0.6h-0.8v-0.6l0.2-1.6L13.9,49.7z M15,51.7
			l0.2-1.6l0.1-0.3h1.5l-0.2,1.9v0.6H15V51.7L15,51.7z M17.3,49.7h2.2l-0.1,2.5h-2.3v-0.6L17.3,49.7z M29.8,40.7h0.5l0.4,0.3l1,0.9
			l0.9,1.1l0.2,0.3h-1.3h-0.1l-0.9-1.7L29.8,40.7z M31.2,40.7L31.2,40.7l0.6,0.3l1.2,0.9l1.1,1.1l0.3,0.3h-0.9L33,42.5l-0.9-1.1
			L31.2,40.7z M29.1,40.7l0.3,0.2l0.7,0.9l0.8,1.4h-1.8l-0.5-1.6l-0.4-0.9L29.1,40.7z M29.3,40.2L29.1,40l0.5,0.2H29.3z M28,40.2
			l-0.2-0.3l-0.2-0.3l0.3,0.1l0.7,0.5H28z M23.1,40.2l0.5-0.2l-0.2,0.2H23.1z M23.3,40.9l0.3-0.3l0.9,0l-0.4,0.9l-0.5,1.7l-0.1,0
			h-1.7l0.2-0.3l0.7-1.1L23.3,40.9z M26.6,39.4L26.6,39.4l0.4,0.3l0.4,0.5h-0.8V39.4z M26.6,40.7h1.1l0.1,0.2l0.8,2.3h-2V40.7z
			 M26.1,39.4v0.8l-0.8,0l0.4-0.5L26.1,39.4L26.1,39.4z M24.7,40.2h-0.4l-0.2,0l0.6-0.4l0.2-0.1l0,0l0.1,0l-0.2,0.3L24.7,40.2z
			 M24.9,40.9l0.1-0.2h1.1v2.5h-2l0.4-1.5L24.9,40.9z M26.6,46.2v-2.5h2.1l0.4,2.5H26.6z M26.1,43.7v2.5h-2.6l0.5-2.5L26.1,43.7z
			 M21.6,43.7h1.9l-0.4,2.5h-2.4l0.7-2.2L21.6,43.7z M23.5,46.8l0-0.1l2.6,0v2.5h-2.9L23.5,46.8z M26.6,49.2v-2.5h2.6l0.2,2.5H26.6z
			 M23.2,49.7h2.9v2.5h-3L23.2,49.7z M33.4,44.1l0.7,1.3l0.3,0.8h-1.9l-0.8-2.4l-0.1-0.2h1.5L33.4,44.1z M31.8,45.4l0.2,0.8h-2.3
			l-0.4-2.5h1.9L31.8,45.4z M29.7,46.7L29.7,46.7l2.4-0.1l0.5,2.5H30L29.7,46.7z M30,49.7l2.7,0l0.1,2.5h-2.7L30,49.7z M26.6,49.7
			l2.9,0l0.1,2.5l-3,0V49.7z M20,49.7h2.7l-0.1,2.5l-0.1,0h-2.6L20,49.7z M33.1,55.8L33.1,55.8l2.2,0l-0.7,2.6l-0.3,0h-1.6l0-0.1
			L33.1,55.8z M32.7,55l-0.1,0.3H30l0.1-2.6l2.7,0L32.7,55z M29.6,52.7l-0.1,2.6h-2.9v-2.6H29.6z M34.4,58.8l-0.3,0.7l-0.7,1.3
			l-0.3,0.5h-1.5l0.2-0.3l0.7-2.2H34.4z M32,58.8l-0.2,0.7l-0.7,1.8h-1.9l0.5-2.5H32z M30,55.8h2.7l-0.5,2.5h-2.4L30,55.8z
			 M29.5,55.8l-0.2,2.5h-2.6v-2.5H29.5z M26.1,52.7v2.6h-2.9l-0.1-2.6L26.1,52.7z M22.6,52.7l0.1,2.6H20l-0.1-2.6H22.6z M23.2,55.8
			l2.9,0v2.5h-2.6L23.2,55.8z M22.7,55.8l0.2,2.5h-2.4l-0.5-2.5H22.7z M23.6,58.8h2.6v2.5H24L23.6,58.8z M25,64.4l-0.5-1.1l-0.4-1.4
			h2v2.5H25z M24.4,64.3L24.4,64.3l-0.8,0.1l-0.3-0.3L22,62.2l-0.1-0.3h1.8l0-0.1l0.5,1.6L24.4,64.3z M27.8,64.1l-0.1,0.3h-1.1v-2.5
			h2L27.8,64.1z M26.6,64.9h0.8L27,65.3l-0.4,0.3l-0.1,0V64.9z M25.3,64.9h0.8v0.7l-0.1,0l-0.4-0.3L25.3,64.9z M23.4,61.1l0.1,0.3
			h-1.9L21.4,61l-0.7-2.1h2.3L23.4,61.1z M20.9,61.1l0.1,0.2h-1.5l-1-1.8l-0.3-0.7h1.9l0.1,0.1L20.9,61.1z M22.4,64.4L21.9,64
			l-1-0.9l-1.1-1.3h1.4l0.9,1.6l0.7,0.9H22.4z M21.6,64.4L20.9,64l-1.2-0.9l-1.1-1.1l-0.2-0.2h0.9l0.3,0.6l0.9,1.1L21.6,64.4z
			 M23.3,64.9h0.2l0.2,0.1L23.3,64.9z M27.6,65.4L27.6,65.4l0.2-0.3l0.1-0.2h0.5l-0.6,0.4L27.6,65.4L27.6,65.4z M25.1,65.4l-0.3-0.1
			l-0.6-0.4h0.5l0.1,0.2L25.1,65.4z M33.4,61.9l0.1,0h0.8l-0.2,0.2L33,63.2L31.8,64l-0.6,0.3h-0.1l1-0.9l0.9-1.1L33.4,61.9z
			 M31.4,61.8L31.4,61.8l1.4,0l-1.1,1.3l-1,0.9l-0.5,0.3h-0.5l0.7-0.9l0.7-1.1L31.4,61.8z M29.1,61.8l0,0.1h1.7l-0.8,1.3l-0.7,0.9
			l-0.3,0.3l-0.8,0L29.1,61.8z M29.4,64.9L29.1,65l0.2-0.1H29.4z M26.6,58.8h2.5l-0.4,2.5h-2.1V58.8z M19.5,55l0,0.3h-2.2L17.3,55
			l-0.2-1.6v-0.6h2.3L19.5,55z M17.4,55.8h2.2l0.4,2.5l0,0.1h-2l-0.5-1.8L17.4,55.8z M16.6,52.7v0.6l0.1,1.7l0.1,0.3l-1.6,0.1
			L15.2,55L15,52.7H16.6z M14.4,52.7L14.4,52.7l0.1,0.6l0.2,1.7l0.1,0.3H14L13.9,55l-0.2-1.6v-0.6H14.4z M14.9,55.8L14.9,55.8
			l0.7,2.5l0,0.1H15l-0.1-0.3l-0.6-1.5l-0.2-0.7H14.9z M15.4,55.8h1.6l0.2,0.9l0.5,1.7l-1.4,0l-0.1-0.3l-0.5-1.5L15.4,55.8z
			 M15.9,58.8l0.5,1l0.9,1.4l0.2,0.2h0l-0.3,0l-0.4-0.4l-0.9-1.3l-0.4-0.7H15.9z M16.7,59.6l-0.3-0.7h1.3l1.1,2.4l0.1,0.1h-1
			l-0.4-0.5L16.7,59.6z M17.7,61.9l0.5,0.6l0.9,0.9l-0.2-0.2l-1.2-1l-0.2-0.2H17.7z"/>
	</g>
	<g>
		<path fill="#BCBEC0" d="M64.5,11.2c-0.1-0.6,3.1-2,4.7-3.3c1.4-1.1,1.5-1.5,1.3-1.6c-0.3,0-1.2,0.4-2.9,1.4
			c-1.9,1.1-4.5,2.4-4.7,2.2c-0.3-0.5,2.1-1.7,3.5-3.2C68.1,5,69.2,3.6,69,3.2c-0.3-0.4-2,1.3-3.9,3c-1.8,1.6-3.9,3-4.1,2.8
			c-0.3-0.4,1.8-1.7,3-3.5c1.6-2.3,2.6-4.8,2.3-5.2c-0.3-0.3-1.7,2.4-3.5,4.6c-1.7,2.2-3.8,4-4,3.9c-0.3-0.4,1.8-2,3-4.4
			c1-2,1.5-4.1,1.2-4.4c-0.3-0.3-1.2,2.2-2.5,4.4c-1.6,2.8-3.7,5.2-3.9,5c-0.2-0.2,0.9-1.7,1.7-3.5c0.7-1.7,1.1-3.6,0.8-3.8
			c-0.2-0.1-0.8,1.4-1.5,3.1c-0.8,1.9-1.9,3.9-2.2,4.2c-0.6,0.7-1.5,1.4-2.4,2.3c-0.9,0.9-8.7,5.2-10.3,6.5
			c-1.5,1.2-6.3,6.6-7.1,6.7c-0.8,0.1-3,0.9-4,0.7c-0.9-0.3-2.8-1.7-2.8-1.7s-0.8-0.9-1.5-1.2c-0.8-0.4-1.9-0.1-1.9-0.1
			s-2.5-0.8-2.5,1.8c1.2-0.1,1.3,0.6,1.6,0.9c0.3,0.3,0.9,0.6,1,0.8c0.1,0.2,1.2,2.4,1,2.7c-0.2,0.3-0.8,0.4-1.5,0.4
			c-0.2,0-1.5,0-3,0.3c-1.1,0.2-2.4,0.6-3.5,0.7c-1.9,0.2-3.4,0.3-3.7,0.4c-0.8,0.1-3.4,0.8-4.5,0.7c-1.1-0.1-1.5-1-1.7-0.4
			c-0.2,0.5,0.7,0.6,0.6,0.9c-0.2,0.3-2.4,0.4-3.6,0.1c-0.5-0.1-1.9-1.2-2.3-1.9c-0.6-0.8-0.2-1.3-0.4-1.6c-0.2-0.2-0.8-0.5-1.1-1
			c-0.3-0.4-0.3-0.9-0.4-1.1c-0.1-0.2-0.4-0.2-0.6-0.3C0.2,25.9,0,25.5,0,25.8c0.3,3.2,1.5,4,3,5.7c1.5,1.7,4.7,1.6,4.8,2.2
			c0.1,0.8-1.2,0.4-1.1,0.7c0,0.1,0.7,0.4,1.4,0.5c0.9,0.1,1.8,0,1.9,0.2c0.2,0.4-1.2,1.4-1.1,1.9c0,0,0.5,1.5,0.5,1.5
			c3.3-3.2,7.4-6.7,12.4-6.7c6.1,0,11.6,3,15,7.6c0.1,0,0.2-0.1,0.3,0c0.3,0.1,2.8,1.6,3,2c0.1,0.2,0.8,2.4,1.8,4.6
			c1.2,2.4,2.7,4.7,2.9,4.7c0.4-0.1-0.1-1,0-1c0.1,0,1,1.2,1.5,1c0.4-0.2,0.6-0.9,0.8-0.9c0.2,0,0.6,1.2,1.2,0.9
			c0.6-0.3,0.5-1.4,0.7-1.5c0.2-0.1,1.2,0.8,1.6,0.6c0.4-0.3,0-1.1,0.1-1.3c0.1-0.2,1.2,0.9,1.8,0.6c0.5-0.3-0.3-1.9-0.2-2
			c0.1-0.2,1.1,0.4,1.6-0.2c0.5-0.6-0.7-1.6-0.6-1.8c0.1-0.2,0.7,0,1-0.3c0.3-0.4-0.6-1.3-0.6-1.4c0.1-0.1,0.8-0.3,1-0.7
			c0.2-0.4-0.6-0.6-0.6-0.8c0-0.2,1.1-0.5,1-1.1c0-0.3-3-1-5.7-2c-2.5-0.9-4.8-2.1-4.9-2.3c-0.2-0.4,0-0.7,0.3-0.7
			c0.5,0.1,1.4,0.4,1.8,0.2c0.7-0.4-0.1-1,0-1.3c0.1-0.3,0.6-0.6,0.7-0.6c0.1-0.1,0.3,0.4,0.6,0.3c0.3-0.1,0.6-0.7,0.6-0.7
			s0.4,0.4,0.9,0c0.4-0.4,0.3-1.3,0.3-1.3s1,0.5,1.5,0.3c0.5-0.2,0.5-0.8,0.5-1c0.1-0.1,0.6,0.2,1,0c0.4-0.2,0.2-0.8,0.5-1
			c0.3-0.2,0.8,0.2,1,0c0.2-0.2,0.1-0.5,0.3-0.6c0.2-0.1,0.7-0.7,0.7-0.7s1.1-0.3,1.4-0.6c0.3-0.4-0.1-0.9,0-1.1
			c0.1-0.3,0.4-0.7,0.8-0.8c0.3,0,0.9,0.5,1.5,0c0.6-0.5,0.3-0.7,0.3-0.7s0.7,0,1.1-0.3c0.4-0.3-0.1-0.9,0.1-1.1
			c0.2-0.2,1.1-0.2,1.3-0.5c0.2-0.3,0-0.6,0.3-0.9c0.2-0.3,0.9-0.2,1-0.6c0.2-0.3-0.4-0.9-0.3-1.1c0.1-0.2,0.4-0.3,0.7-0.4
			c0.2-0.1-0.1-0.6,0.1-0.8c0.2-0.3,1.1-0.3,1.3-0.7c0.2-0.4-0.2-0.8,0-0.9c0.1-0.2,1.4-0.3,1.5-0.8c0.1-0.6-0.8-0.7-0.8-1
			c0-0.2,0.7-0.2,1.3-0.4c0.5-0.2,1-0.6,0.9-1.1c-0.1-0.9-1-0.5-1-0.9c0-0.3,0.7-0.4,1.3-0.7c0.6-0.3,1.1-0.8,1.1-1.1
			c0-0.6-1.8,0.1-2-0.2c-0.2-0.2,0.8-0.8,1.8-1.3c1-0.5,1.9-0.9,1.9-1.1C70.4,9.7,64.6,11.8,64.5,11.2z"/>
	</g>
	<path fill="#BCBEC0" d="M26.3,30.4c-12.2,0-22.1,9.9-22.1,22.1c0,12.2,9.9,22.1,22.1,22.1c12.2,0,22.1-9.9,22.1-22.1
		C48.4,40.3,38.5,30.4,26.3,30.4z M26.3,69.4c-9.3,0-16.9-7.5-16.9-16.9c0-9.3,7.5-16.9,16.9-16.9c9.3,0,16.9,7.5,16.9,16.9
		C43.2,61.8,35.7,69.4,26.3,69.4z"/>
	<linearGradient id="SVGID_2_" gradientUnits="userSpaceOnUse" x1="3.9687" y1="52.5026" x2="48.7231" y2="52.5026">
		<stop  offset="0" style="stop-color:#868148"/>
		<stop  offset="0.2846" style="stop-color:#ABAA94"/>
		<stop  offset="0.6131" style="stop-color:#D9D089"/>
		<stop  offset="0.6352" style="stop-color:#DCD388"/>
		<stop  offset="1" style="stop-color:#735F2E"/>
	</linearGradient>
	<path fill="url(#SVGID_2_)" d="M26.3,74.9C14,74.9,4,64.8,4,52.5c0-12.3,10-22.4,22.4-22.4c12.3,0,22.4,10,22.4,22.4
		C48.7,64.8,38.7,74.9,26.3,74.9z M26.3,30.8c-12,0-21.7,9.7-21.7,21.7s9.7,21.7,21.7,21.7c12,0,21.7-9.7,21.7-21.7
		S38.3,30.8,26.3,30.8z M26.3,69.7c-9.5,0-17.2-7.7-17.2-17.2c0-9.5,7.7-17.2,17.2-17.2c9.5,0,17.2,7.7,17.2,17.2
		C43.5,62,35.8,69.7,26.3,69.7z M26.3,36c-9.1,0-16.5,7.4-16.5,16.5c0,9.1,7.4,16.5,16.5,16.5c9.1,0,16.5-7.4,16.5-16.5
		C42.9,43.4,35.5,36,26.3,36z"/>
	<g>
		<path fill="#ED1C24" d="M9.5,59.9l0.5-0.2l0.5,1.1L10,61l-0.1-0.3l-1.6,0.8l0.1,0.3L7.9,62l-0.5-1.1l0.5-0.2L8,61l1.6-0.8
			L9.5,59.9z"/>
		<path fill="#ED1C24" d="M9.1,57.2L7.8,59l1.7-0.5L9.7,59L7,59.9l-0.1-0.3l1.3-1.8l-1.7,0.5l-0.2-0.5L9,56.9L9.1,57.2z"/>
		<path fill="#ED1C24" d="M8.7,55.2l0.1,0.5l-2.3,0.4l0.1,0.8l-0.5,0.1l-0.3-2.1l0.5-0.1l0.1,0.8L8.7,55.2z"/>
		<path fill="#ED1C24" d="M6.8,52.2l0.5,0l0,1.2l0.6,0l0-1.3l0.5,0l0.1,1.9L5.7,54l-0.1-1.9l0.5,0l0,1.3l0.6,0L6.8,52.2z"/>
		<path fill="#ED1C24" d="M5.8,50.2c0.1-0.8,0.6-1.2,1.2-1.1c0.4,0,0.7,0.3,0.8,0.7c0.1-0.1,0.2-0.2,0.5-0.4l0.4-0.2l-0.1,0.6
			L8.3,50c-0.4,0.2-0.4,0.2-0.5,0.5l0,0.3l0.7,0.1l-0.1,0.5l-2.8-0.3L5.8,50.2z M7.3,50.8l0.1-0.5c0-0.4-0.1-0.7-0.5-0.7
			c-0.4,0-0.6,0.2-0.6,0.6l-0.1,0.5L7.3,50.8z"/>
		<path fill="#ED1C24" d="M9.3,47l-2.1,0.8L9,48.3l-0.1,0.5l-2.7-0.7l0.1-0.3L8.2,47l-1.7-0.5L6.7,46l2.7,0.7L9.3,47z"/>
		<path fill="#ED1C24" d="M9.8,45.7l-0.3,0.6l-2.1-2.2l0.1-0.3l3,0.1l-0.3,0.6l-0.6,0l-0.4,0.9L9.8,45.7z M9,44.9l0.3-0.6l-0.8,0
			L9,44.9z"/>
		<path fill="#ED1C24" d="M11.3,42.8L11,43.3l-1.9-1.2l-0.4,0.7l-0.4-0.3l1.1-1.8L9.8,41l-0.4,0.7L11.3,42.8z"/>
		<path fill="#ED1C24" d="M12.4,40.5l0.4,0.3l-0.8,1l-0.4-0.3l0.2-0.3l-1.4-1.1l-0.2,0.3L9.8,40l0.8-1l0.4,0.3l-0.2,0.3l1.4,1.1
			L12.4,40.5z"/>
		<path fill="#ED1C24" d="M14.3,37.4c0.5,0.6,0.5,1.5-0.1,2c-0.6,0.5-1.5,0.5-2-0.1c-0.5-0.6-0.5-1.5,0.1-2
			C12.8,36.8,13.7,36.8,14.3,37.4z M12.6,39c0.4,0.4,0.9,0.4,1.3,0.1c0.4-0.3,0.4-0.9,0-1.3c-0.4-0.4-0.9-0.4-1.3-0.1
			C12.2,38,12.2,38.6,12.6,39z"/>
		<path fill="#ED1C24" d="M17.2,37.1l-2.1-0.8l1,1.5l-0.5,0.3l-1.5-2.4l0.3-0.2l2.1,0.8l-1-1.5l0.5-0.3l1.5,2.4L17.2,37.1z"/>
		<path fill="#ED1C24" d="M18.4,36.5l-0.6,0.2l-0.1-3l0.3-0.1l2.2,2.1l-0.6,0.3l-0.4-0.4l-0.9,0.4L18.4,36.5z M18.4,35.3l0.6-0.2
			l-0.6-0.6L18.4,35.3z"/>
		<path fill="#ED1C24" d="M20.7,35.5l-0.8-2.7l0.5-0.2l0.6,2.2l1.2-0.3l0.1,0.5L20.7,35.5z"/>
		<path fill="#ED1C24" d="M26.5,31.8c0.8,0,1.2,0.5,1.2,1.1c0,0.4-0.2,0.7-0.6,0.9c0.1,0.1,0.2,0.2,0.4,0.5l0.2,0.4l-0.6,0L27,34.4
			c-0.2-0.3-0.3-0.4-0.6-0.4l-0.3,0l0,0.7l-0.6,0l0-2.8L26.5,31.8z M26.1,33.4l0.5,0c0.4,0,0.6-0.2,0.6-0.5c0-0.4-0.3-0.5-0.6-0.5
			l-0.5,0L26.1,33.4z"/>
		<path fill="#ED1C24" d="M30.3,33.3l-0.1,0.5L29,33.7l-0.1,0.6l1.3,0.2L30.1,35l-1.8-0.3l0.4-2.8l1.8,0.3l-0.1,0.5l-1.3-0.2
			l-0.1,0.6L30.3,33.3z"/>
		<path fill="#ED1C24" d="M32.4,32.7c0.4,0.1,0.7,0.4,0.9,0.8l-0.4,0.2c-0.2-0.2-0.4-0.4-0.6-0.5l0,0c-0.2-0.1-0.5-0.1-0.6,0.2
			c-0.1,0.2,0.1,0.3,0.4,0.4l0.2,0.1c0.5,0.2,0.9,0.6,0.7,1.1c-0.2,0.5-0.7,0.7-1.3,0.5l0,0c-0.5-0.2-0.9-0.5-1-0.9l0.4-0.2
			c0.1,0.2,0.3,0.5,0.7,0.6l0,0c0.3,0.1,0.6,0,0.6-0.2c0.1-0.2-0.1-0.4-0.4-0.5l-0.2-0.1c-0.5-0.2-0.8-0.5-0.7-1
			C31.2,32.7,31.8,32.5,32.4,32.7L32.4,32.7z"/>
		<path fill="#ED1C24" d="M36.2,34.8l-0.5,0.1c-0.1-0.2-0.3-0.4-0.5-0.6c-0.4-0.2-1,0-1.2,0.4c-0.2,0.5,0,1,0.4,1.2
			c0.2,0.1,0.5,0.1,0.8,0.1l0.2,0.5c-0.4,0.1-0.8,0.1-1.2,0c-0.7-0.3-1-1.2-0.7-1.9c0.3-0.7,1.2-1,1.9-0.7
			C35.9,34.1,36.1,34.4,36.2,34.8z"/>
		<path fill="#ED1C24" d="M38.2,37.5c-0.5,0.7-1.1,0.7-1.6,0.3c-0.5-0.3-0.7-1-0.2-1.6l0.9-1.3l0.5,0.3l-0.9,1.3
			c-0.3,0.4-0.2,0.7,0.1,0.9c0.2,0.2,0.6,0.2,0.9-0.2l0.9-1.3l0.5,0.3L38.2,37.5z"/>
		<path fill="#ED1C24" d="M40.5,39l-0.4,0.4l-0.9-0.8L38.8,39l1,0.9l-0.4,0.4L38.1,39l1.9-2l1.4,1.3L41,38.6l-1-0.9l-0.4,0.4
			L40.5,39z"/>
		<path fill="#ED1C24" d="M44.3,42.1c0.2,0.3,0.2,0.8,0.1,1.2L44,43.2c0-0.3,0-0.6-0.1-0.8l0,0c-0.1-0.2-0.3-0.4-0.5-0.3
			c-0.2,0.1-0.1,0.3,0,0.5l0.1,0.2c0.2,0.5,0.3,1-0.2,1.3c-0.5,0.3-1,0-1.3-0.5l0,0c-0.3-0.5-0.3-1-0.1-1.3l0.5,0.1
			c-0.1,0.2-0.1,0.5,0.1,0.9l0,0c0.2,0.3,0.4,0.4,0.6,0.3c0.2-0.1,0.2-0.4,0-0.6l-0.1-0.2c-0.2-0.5-0.2-1,0.2-1.2
			C43.5,41.4,44,41.6,44.3,42.1L44.3,42.1z"/>
		<path fill="#ED1C24" d="M44.8,46.1l-0.5,0.2l-0.5-1.1l-0.6,0.2l0.5,1.2l-0.5,0.2l-0.7-1.7l2.6-1.1l0.7,1.7L45.5,46L45,44.7
			L44.4,45L44.8,46.1z"/>
		<path fill="#ED1C24" d="M46.4,47.6c0.2,0.8-0.2,1.3-0.7,1.4c-0.4,0.1-0.8,0-1-0.4c0,0.1-0.2,0.3-0.4,0.5L44,49.5l-0.1-0.6l0.2-0.2
			c0.3-0.3,0.3-0.4,0.3-0.6l-0.1-0.3l-0.7,0.2l-0.1-0.5l2.7-0.7L46.4,47.6z M44.8,47.6l0.1,0.4c0.1,0.4,0.3,0.6,0.7,0.5
			c0.3-0.1,0.5-0.4,0.4-0.8l-0.1-0.4L44.8,47.6z"/>
		<path fill="#ED1C24" d="M44.1,50.7l2.7-1.4l0.1,0.6l-1.7,0.9l1.9,0.5l0.1,0.6l-2.9-0.9L44.1,50.7z"/>
		<path fill="#ED1C24" d="M44.7,54l-0.5,0l0.1-1.2l0.5,0l0,0.3l1.8,0.1l0-0.3l0.5,0L47,54.1l-0.5,0l0-0.3l-1.8-0.1L44.7,54z"/>
		<path fill="#ED1C24" d="M46.1,57.3l-0.3-0.4c0.2-0.1,0.3-0.4,0.4-0.6c0.1-0.5-0.2-0.9-0.7-1c-0.5-0.1-1,0.2-1.1,0.7
			c0,0.3,0,0.5,0.2,0.7l-0.4,0.3c-0.2-0.3-0.3-0.7-0.3-1.1c0.1-0.8,0.9-1.3,1.7-1.2c0.8,0.1,1.3,0.9,1.2,1.7
			C46.6,56.7,46.4,57.1,46.1,57.3z"/>
		<path fill="#ED1C24" d="M44.6,59.6l-0.5-0.2l0.4-1.2l-0.6-0.2l-0.4,1.3L43,59.1l0.6-1.8l2.7,0.9L45.7,60l-0.5-0.2l0.4-1.3L45,58.4
			L44.6,59.6z"/>
		<path fill="#ED1C24" d="M44.9,61.7c-0.2,0.4-0.5,0.6-0.9,0.8L43.9,62c0.2-0.1,0.5-0.3,0.6-0.5l0,0c0.1-0.2,0.2-0.5-0.1-0.6
			c-0.2-0.1-0.3,0.1-0.5,0.3l-0.1,0.2c-0.3,0.5-0.7,0.8-1.2,0.5c-0.5-0.2-0.6-0.8-0.3-1.4l0,0c0.3-0.5,0.7-0.8,1-0.8l0.1,0.5
			c-0.2,0-0.5,0.2-0.7,0.6l0,0c-0.1,0.3-0.1,0.5,0.1,0.6c0.2,0.1,0.4-0.1,0.5-0.3l0.1-0.2c0.3-0.5,0.7-0.7,1.1-0.5
			C45.1,60.6,45.2,61.2,44.9,61.7L44.9,61.7z"/>
	</g>
	<g>
		<g>
			<g>
				<g>
					<g>
						<g>
							<polygon fill="#ED1C24" points="24.4,52.5 26.3,52.5 17.4,43.6 							"/>
						</g>
						<g>
							<polygon fill="#FFFFFF" points="26.3,50.5 17.4,43.6 26.3,52.5 							"/>
						</g>
					</g>
					<g>
						<path fill="#ED1C24" d="M24.2,52.7L16,42.2l10.6,8.2l0,2.4H24.2z M18.8,44.9l5.7,7.3l1.6,0v-1.6L18.8,44.9z"/>
					</g>
				</g>
				<g>
					<g>
						<g>
							<polygon fill="#ED1C24" points="28.3,52.5 26.3,52.5 35.3,61.5 							"/>
						</g>
						<g>
							<polygon fill="#FFFFFF" points="26.3,54.5 35.3,61.5 26.3,52.5 							"/>
						</g>
					</g>
					<g>
						<path fill="#ED1C24" d="M36.7,62.8l-10.6-8.2v-2.4h2.4L36.7,62.8z M26.6,54.4l7.3,5.7l-5.7-7.3h-1.6V54.4z"/>
					</g>
				</g>
			</g>
			<g>
				<g>
					<g>
						<g>
							<polygon fill="#ED1C24" points="26.3,54.5 26.3,52.5 17.4,61.5 							"/>
						</g>
						<g>
							<polygon fill="#FFFFFF" points="24.4,52.5 17.4,61.5 26.3,52.5 							"/>
						</g>
					</g>
					<g>
						<path fill="#ED1C24" d="M16,62.8l8.2-10.6h2.4l0,2.4L16,62.8z M24.5,52.7l-5.7,7.3l7.3-5.7v-1.6H24.5z"/>
					</g>
				</g>
				<g>
					<g>
						<g>
							<polygon fill="#ED1C24" points="26.3,50.5 26.3,52.5 35.3,43.6 							"/>
						</g>
						<g>
							<polygon fill="#FFFFFF" points="28.3,52.5 35.3,43.6 26.3,52.5 							"/>
						</g>
					</g>
					<g>
						<path fill="#ED1C24" d="M28.5,52.7h-2.4v-2.4l10.6-8.2L28.5,52.7z M26.6,52.3l1.6,0l5.7-7.3l-7.3,5.7V52.3z"/>
					</g>
				</g>
			</g>
		</g>
		<g>
			<g>
				<g>
					<g>
						<g>
							<polygon fill="#ED1C24" points="24.5,50.6 26.3,52.5 26.3,35.7 							"/>
						</g>
						<g>
							<polygon fill="#FFFFFF" points="28.2,50.6 26.3,35.7 26.3,52.5 							"/>
						</g>
					</g>
					<g>
						<path fill="#ED1C24" d="M26.3,52.8l-2.1-2.1l2.1-17l2.1,17L26.3,52.8z M24.7,50.5l1.6,1.6l1.6-1.6l-1.6-12.9L24.7,50.5z"/>
					</g>
				</g>
				<g>
					<g>
						<g>
							<polygon fill="#ED1C24" points="28.2,54.4 26.3,52.5 26.3,69.3 							"/>
						</g>
						<g>
							<polygon fill="#FFFFFF" points="24.5,54.4 26.3,69.3 26.3,52.5 							"/>
						</g>
					</g>
					<g>
						<path fill="#ED1C24" d="M26.3,71.2l-2.1-17l2.1-2.1l2.1,2.1L26.3,71.2z M24.7,54.5l1.6,12.9L28,54.5l-1.6-1.6L24.7,54.5z"/>
					</g>
				</g>
			</g>
			<g>
				<g>
					<g>
						<g>
							<polygon fill="#ED1C24" points="24.5,54.4 26.3,52.5 9.6,52.5 							"/>
						</g>
						<g>
							<polygon fill="#FFFFFF" points="24.5,50.6 9.6,52.5 26.3,52.5 							"/>
						</g>
					</g>
					<g>
						<path fill="#ED1C24" d="M24.6,54.6l-17-2.1l17-2.1l2.1,2.1L24.6,54.6z M11.5,52.5l12.9,1.6l1.6-1.6l-1.6-1.6L11.5,52.5z"/>
					</g>
				</g>
				<g>
					<g>
						<g>
							<polygon fill="#ED1C24" points="28.2,50.6 26.3,52.5 43.1,52.5 							"/>
						</g>
						<g>
							<polygon fill="#FFFFFF" points="28.2,54.4 43.1,52.5 26.3,52.5 							"/>
						</g>
					</g>
					<g>
						<path fill="#ED1C24" d="M28.1,54.6L26,52.5l2.1-2.1l17,2.1L28.1,54.6z M26.7,52.5l1.6,1.6l12.9-1.6l-12.9-1.6L26.7,52.5z"/>
					</g>
				</g>
			</g>
		</g>
	</g>
	<g>
		<polygon fill="#6B582A" points="19.5,69 19,68.8 17.8,71.4 19.5,72.1 19.7,71.7 18.5,71.1 		"/>
		<path fill="#6B582A" d="M22.1,70c-0.8-0.2-1.5,0.2-1.8,1c-0.2,0.8,0.2,1.6,1,1.8c0.8,0.2,1.6-0.2,1.8-1C23.3,71,22.9,70.2,22.1,70
			z M22.6,71.6c-0.1,0.5-0.6,0.8-1.1,0.6c-0.5-0.1-0.7-0.6-0.6-1.1c0.1-0.5,0.6-0.8,1.1-0.6C22.4,70.6,22.7,71.1,22.6,71.6z"/>
		<polygon fill="#6B582A" points="25.4,72.4 24.2,70.5 23.9,70.4 23.6,73.2 24.2,73.3 24.4,71.5 25.5,73.4 25.8,73.4 26.1,70.6 
			25.6,70.6 		"/>
		<path fill="#6B582A" d="M27.6,70.6l-1,0.1l0.2,2.8l1-0.1c0.8-0.1,1.4-0.7,1.3-1.5C29.1,71.1,28.4,70.5,27.6,70.6z M27.8,72.9
			l-0.4,0l-0.1-1.8l0.4,0c0.5,0,0.9,0.3,0.9,0.8C28.6,72.5,28.3,72.8,27.8,72.9z"/>
		<path fill="#6B582A" d="M30.7,70.1c-0.8,0.2-1.2,1-1.1,1.7c0.2,0.8,1,1.2,1.7,1.1c0.8-0.2,1.2-1,1.1-1.7
			C32.3,70.4,31.5,69.9,30.7,70.1z M31.3,72.4c-0.5,0.1-0.9-0.2-1.1-0.7c-0.1-0.5,0.2-1,0.6-1.1c0.5-0.1,0.9,0.2,1.1,0.7
			C32,71.8,31.8,72.2,31.3,72.4z"/>
		<polygon fill="#6B582A" points="35.7,71.4 34.6,68.8 34.1,69 34.8,70.6 32.9,69.5 32.6,69.6 33.6,72.2 34.1,72 33.5,70.4 
			35.3,71.5 		"/>
	</g>
</g>
</svg>
