<?xml version="1.0" encoding="utf-8"?>
<!-- Generator: Adobe Illustrator 18.1.1, SVG Export Plug-In . SVG Version: 6.00 Build 0)  -->
<svg version="1.1" id="Слой_1" xmlns="http://www.w3.org/2000/svg" xmlns:xlink="http://www.w3.org/1999/xlink" x="0px" y="0px"
	 viewBox="0 0 46.1 46.4" enable-background="new 0 0 46.1 46.4" xml:space="preserve">
<rect x="-12" y="-37.8" display="none" fill="#FFFFFF" width="266.5" height="153.1"/>
<g display="none">
	<g display="inline">
		<path fill="#ED1C24" d="M48.4,45.2v-1.3l4.6-7.8h-4.2V34h6.9v1.3l-4.6,7.8h4.7v2.1H48.4z"/>
		<path fill="#ED1C24" d="M60.6,45.2v-3.7L57.1,34h2.2l2.3,4.7l2.3-4.7h2.2l-3.5,7.5v3.7H60.6z"/>
		<path fill="#ED1C24" d="M74.7,45.2L70,38.1v7.1h-2V34h1.1l4.7,7.1V34h2v11.2H74.7z"/>
		<path fill="#ED1C24" d="M85,38.5v2.1h-4.3v2.5h4.7v2.1h-6.6V34h6.6v2.1h-4.7v2.4H85z"/>
		<path fill="#ED1C24" d="M94.1,45.2l-4.7-7.1v7.1h-2V34h1.1l4.7,7.1V34h2v11.2H94.1z"/>
		<path fill="#ED1C24" d="M102.3,41.6c-0.4-0.8-0.7-1-1.3-1h-0.9v4.6h-2V34h2v4.5h0.9c0.7,0,0.9-0.3,1.3-1l2-3.5h2.2l-2.3,4.1
			c-0.6,0.9-0.9,1.2-1.1,1.3c0.3,0.2,0.6,0.4,1.2,1.5l2.4,4.3h-2.2L102.3,41.6z"/>
		<path fill="#ED1C24" d="M117.7,39.6c0,3.2-2.3,5.7-5.1,5.7c-2.8,0-5-2.5-5-5.7c0-3.2,2.3-5.7,5-5.7
			C115.4,33.9,117.7,36.4,117.7,39.6z M109.5,39.6c0,2.2,1.4,3.6,3.1,3.6c1.7,0,3.1-1.5,3.1-3.6c0-2.1-1.4-3.6-3.1-3.6
			C110.9,35.9,109.5,37.4,109.5,39.6z"/>
	</g>
	<g display="inline">
		<path fill="#ED1C24" d="M133,39.6c0,3.2-2.2,5.7-4.9,5.7c-2.7,0-4.9-2.6-4.9-5.7c0-3.2,2.2-5.7,4.9-5.7
			C130.8,33.8,133,36.4,133,39.6z M125.1,39.6c0,2.2,1.3,3.6,3,3.6c1.7,0,3-1.5,3-3.6c0-2.2-1.3-3.7-3-3.7
			C126.5,35.9,125.1,37.4,125.1,39.6z"/>
		<path fill="#ED1C24" d="M135.1,33.9h1.8v11.3h-1.8V33.9z"/>
		<path fill="#ED1C24" d="M145.2,39.2c0.3,0.7,0.3,1.8,0.1,2.5h-4.8c0,1.1,0.8,1.7,1.7,1.7c0.7,0,1.5-0.2,2.1-0.6l0.9,1.2
			c-0.7,0.6-1.8,1.3-3,1.3c-2.1,0-3.5-1.8-3.5-4.1c0-2.3,1.3-4.1,3.5-4.1C143.6,37,144.6,37.8,145.2,39.2z M140.6,40.4h3.1
			c0-0.2-0.1-0.5-0.2-0.6c-0.2-0.5-0.7-0.9-1.4-0.9C141.2,38.9,140.6,39.7,140.6,40.4z"/>
		<path fill="#ED1C24" d="M150.9,43c-0.4-0.7-0.6-1-1.3-1h-0.5v3.2h-1.7V33.9h1.7v6.1h0.4c0.6,0,0.9-0.3,1.3-1l1.1-1.9h1.9l-1.5,2.7
			c-0.3,0.5-0.7,1-1,1.2c0.3,0.1,0.7,0.6,1,1.2l1.6,2.9H152L150.9,43z"/>
		<path fill="#ED1C24" d="M158.2,37c1.1,0,2.3,0.6,2.9,1.5l-1,1.1c-0.4-0.6-1.3-0.9-1.9-0.9h-0.1c-0.6,0-1.1,0.3-1.1,0.8
			c0,0.5,0.3,0.6,1.1,0.7l0.5,0.1c1.4,0.1,2.5,0.8,2.5,2.5c0,1.4-1.1,2.5-2.8,2.5h-0.1c-1.3,0-2.6-0.6-3.2-1.5l1-1.1
			c0.4,0.6,1.4,1,2.2,1h0.1c0.6,0,1-0.2,1-0.8c0-0.6-0.4-0.8-1.2-0.9l-0.4,0c-1.6-0.2-2.6-0.9-2.6-2.3c0-1.6,1.3-2.5,2.8-2.6H158.2z
			"/>
		<path fill="#ED1C24" d="M168.5,45.2l-0.1-1.1c-0.5,0.8-1.3,1.2-2.3,1.2c-1.9,0-3.3-1.8-3.3-4.1c0-2.3,1.4-4.1,3.3-4.1
			c0.9,0,1.8,0.5,2.3,1.3l0.1-1.1h1.2v8H168.5z M168,41.2c0-1.3-0.9-2.2-1.8-2.2c-0.9,0-1.8,0.8-1.8,2.2c0,1.3,0.9,2.1,1.8,2.1
			C167.2,43.3,168,42.5,168,41.2z"/>
		<path fill="#ED1C24" d="M178.6,40.9v4.2h-1.7v-4.1c0-1.5-0.6-2.1-1.5-2.1c-1,0-1.6,0.7-1.6,2.2v3.9H172v-8h1.2l0.1,1.3
			c0.5-0.9,1.3-1.4,2.4-1.4C177.6,37,178.6,38.6,178.6,40.9z"/>
		<path fill="#ED1C24" d="M186.2,45.2l-0.1-1.1c-0.5,0.8-1.3,1.2-2.3,1.2c-1.9,0-3.3-1.8-3.3-4.1c0-2.3,1.4-4.1,3.3-4.1
			c0.7,0,1.4,0.4,1.8,0.9v-4h1.7v11.3H186.2z M185.8,41.2c0-1.3-0.9-2.2-1.8-2.2c-0.9,0-1.8,0.8-1.8,2.2c0,1.3,0.9,2.1,1.8,2.1
			C184.9,43.3,185.8,42.5,185.8,41.2z"/>
		<path fill="#ED1C24" d="M193.4,39c-1.3,0-1.9,1-1.9,2.5v3.6h-1.7v-8h1.2l0.2,1.7c0.5-1.1,1.4-1.9,2.7-1.9h0.3v2H193.4z"/>
	</g>
</g>
<linearGradient id="SVGID_1_" gradientUnits="userSpaceOnUse" x1="-12" y1="78.4873" x2="254.457" y2="78.4873">
	<stop  offset="0" style="stop-color:#868148"/>
	<stop  offset="0.2846" style="stop-color:#ABAA94"/>
	<stop  offset="0.6131" style="stop-color:#C5BE7D"/>
	<stop  offset="0.6352" style="stop-color:#C7BF7B"/>
	<stop  offset="1" style="stop-color:#735F2E"/>
</linearGradient>
<line display="none" fill="none" stroke="url(#SVGID_1_)" stroke-width="0.75" stroke-miterlimit="10" x1="-12" y1="78.5" x2="254.5" y2="78.5"/>
<g display="none">
	<path display="inline" d="M102.2,49.8c2.2,0,3.9,1.4,3.9,3.5c0,2.1-1.7,3.5-3.9,3.5h-2.4v-7H102.2z M102.2,56c1.7,0,3.1-1,3.1-2.8
		c0-1.7-1.4-2.8-3.1-2.8h-1.6V56H102.2z"/>
	<path display="inline" d="M107.9,50.7c0-0.2,0.2-0.4,0.5-0.4c0.3,0,0.5,0.2,0.5,0.4c0,0.2-0.2,0.4-0.5,0.4
		C108.1,51.1,107.9,51,107.9,50.7z M108,51.8h0.8v5H108V51.8z"/>
	<path display="inline" d="M113.9,52.4c-1.6,0-2.2,1-2.2,2.2v2.1h-0.8v-5h0.6l0.1,1.3c0.4-0.9,1.3-1.4,2.5-1.4h0.1v0.7H113.9z"/>
	<path display="inline" d="M120.6,53.1c0.2,0.4,0.2,1,0.1,1.3h-4.6c0,1.1,0.9,1.7,2.1,1.7c0.7,0,1.4-0.2,1.9-0.5l0.4,0.4
		c-0.6,0.4-1.4,0.8-2.3,0.8c-1.7,0-2.9-1-2.9-2.6c0-1.4,1.1-2.6,2.8-2.6C119.3,51.7,120.2,52.3,120.6,53.1z M116.2,53.9h3.8
		c0-0.2,0-0.4-0.1-0.6c-0.3-0.6-0.9-1-1.7-1C117,52.4,116.2,53.1,116.2,53.9z"/>
	<path display="inline" d="M127.1,52.6l-0.5,0.5c-0.5-0.5-1-0.7-1.7-0.7c-1.1,0-2,0.8-2,1.9c0,1.1,0.9,1.9,2,1.9
		c0.7,0,1.2-0.2,1.7-0.7l0.5,0.5c-0.5,0.6-1.3,0.9-2.2,0.9c-1.6,0-2.8-1.1-2.8-2.6c0-1.4,1.3-2.6,2.8-2.6
		C125.8,51.7,126.5,52.1,127.1,52.6z"/>
	<path display="inline" d="M130,56.8h-0.8v-4.3h-0.8v-0.7h0.8v-1.7h0.8v1.7h0.8v0.7H130V56.8z"/>
	<path display="inline" d="M137.7,54.3c0,1.4-1.3,2.6-2.8,2.6s-2.8-1.1-2.8-2.6c0-1.4,1.3-2.6,2.8-2.6S137.7,52.8,137.7,54.3z
		 M132.9,54.3c0,1.1,0.9,1.9,2,1.9c1.1,0,2-0.8,2-1.9c0-1.1-0.9-1.9-2-1.9C133.8,52.4,132.9,53.2,132.9,54.3z"/>
	<path display="inline" d="M142.4,52.4c-1.6,0-2.2,1-2.2,2.2v2.1h-0.8v-5h0.6l0.1,1.3c0.4-0.9,1.3-1.4,2.5-1.4h0.1v0.7H142.4z"/>
</g>
<g display="none">
	<path display="inline" d="M154.4,88h-0.5v-4.4h-1.5v-0.5h3.6v0.5h-1.5V88z"/>
	<path display="inline" d="M159.4,85.5c0.1,0.3,0.1,0.7,0.1,0.9h-2.9c0,0.8,0.6,1.2,1.3,1.2c0.5,0,0.9-0.1,1.2-0.4l0.3,0.3
		c-0.4,0.3-0.9,0.5-1.5,0.5c-1.1,0-1.8-0.7-1.8-1.8c0-1,0.7-1.8,1.8-1.8C158.6,84.5,159.1,84.9,159.4,85.5z M156.5,86h2.4
		c0-0.1,0-0.3-0.1-0.4c-0.2-0.4-0.6-0.7-1.1-0.7C157.1,84.9,156.6,85.4,156.5,86z"/>
	<path display="inline" d="M160.6,83.1h0.5V88h-0.5V83.1z"/>
	<path display="inline" d="M162.8,87.7c0,0.2-0.2,0.3-0.3,0.3c-0.2,0-0.3-0.1-0.3-0.3c0-0.2,0.1-0.3,0.3-0.3
		C162.7,87.4,162.8,87.6,162.8,87.7z"/>
	<path display="inline" d="M171,85.8v0.3h-1.3v1.3h-0.4v-1.3h-1.3v-0.3h1.3v-1.3h0.4v1.3H171z"/>
	<path display="inline" d="M175.8,85.1c0.2,0,0.3-0.1,0.6-0.1c1,0.1,1.4,0.6,1.4,1.4c0,0.9-0.6,1.6-1.7,1.6H176
		c-0.9,0-1.6-0.4-1.9-1l0.4-0.3c0.4,0.6,0.9,0.8,1.6,0.8h0c0.7,0,1.2-0.5,1.2-1.2c0-0.6-0.4-1-1.3-1c-0.3,0-0.6,0.1-0.8,0.2
		l-0.3-0.2l1.9-1.6h-2.3v-0.5h3.1v0.3L175.8,85.1z"/>
	<path display="inline" d="M182,86.7c0,0.8-0.7,1.4-1.7,1.4h0c-1,0-1.7-0.5-1.7-1.4c0-0.6,0.4-1.1,1-1.2c-0.4-0.2-0.8-0.5-0.8-1.1
		c0-0.7,0.6-1.2,1.5-1.2h0.1c0.9,0,1.5,0.5,1.5,1.2c0,0.6-0.4,0.9-0.8,1.1C181.6,85.6,182,86,182,86.7z M181.5,86.6
		c0-0.6-0.5-1-1.2-1c-0.4,0-1.2,0.2-1.2,1c0,0.6,0.5,1,1.2,1C181,87.5,181.5,87.2,181.5,86.6z M180.3,85.3c0.5,0,1-0.2,1-0.8
		c0-0.6-0.5-0.8-1-0.8c-0.5,0-1,0.2-1,0.8C179.3,85,179.8,85.3,180.3,85.3z"/>
	<path display="inline" d="M190,85.6c0,1.4-1.1,2.5-2.5,2.5c-1.4,0-2.4-1.1-2.4-2.5c0-1.4,1.1-2.5,2.4-2.5
		C188.9,83.1,190,84.2,190,85.6z M185.7,85.6c0,1.1,0.8,1.9,1.9,1.9c1.1,0,1.9-0.8,1.9-1.9c0-1.1-0.8-1.9-1.9-1.9
		C186.5,83.7,185.7,84.5,185.7,85.6z"/>
	<path display="inline" d="M193.9,88h-0.5v-1h-2.7v-0.3l2.9-3.5h0.3v3.3h0.6V87h-0.6V88z M191.3,86.5h2v-2.4L191.3,86.5z"/>
	<path display="inline" d="M198.3,88h-0.5v-1h-2.7v-0.3l2.9-3.5h0.3v3.3h0.6V87h-0.6V88z M195.7,86.5h2v-2.4L195.7,86.5z"/>
	<path display="inline" d="M202.6,83.7v1.5c0.3-0.2,0.7-0.3,1.2-0.3c1,0,1.6,0.6,1.6,1.5c0,0.8-0.6,1.6-1.7,1.6h-0.1
		c-0.9,0-1.5-0.4-1.9-1l0.4-0.3c0.4,0.6,0.8,0.8,1.5,0.8h0c0.7,0,1.2-0.4,1.2-1.1c0-0.7-0.5-1.1-1.3-1.1c-0.5,0-1,0.2-1.3,0.4
		l-0.3-0.2v-2.3h2.9v0.5H202.6z"/>
	<path display="inline" d="M208.2,83.1c0.7,0,1.1,0.3,1.5,0.7l-0.4,0.3c-0.3-0.3-0.6-0.5-1.1-0.5l0,0c-1,0-1.4,1-1.4,1.8
		c0.2-0.4,0.7-0.8,1.4-0.8c0.9,0,1.7,0.7,1.7,1.6c0,0.9-0.7,1.7-1.8,1.7c-1.1,0-1.8-0.8-1.8-1.9l0-0.4
		C206.2,84.4,206.8,83.1,208.2,83.1L208.2,83.1z M206.8,86.3c0,0.7,0.4,1.2,1.2,1.2c0.7,0,1.2-0.5,1.2-1.2c0-0.7-0.5-1.2-1.2-1.2
		C207.3,85.2,206.8,85.7,206.8,86.3z"/>
	<path display="inline" d="M211.5,88v-3.8l-0.6,0.7l-0.4-0.3l1.2-1.5h0.3V88H211.5z"/>
	<path display="inline" d="M218.6,88h-0.5v-1h-2.7v-0.3l2.9-3.5h0.3v3.3h0.6V87h-0.6V88z M216.1,86.5h2v-2.4L216.1,86.5z"/>
	<path display="inline" d="M221.5,88.1c-0.7,0-1.1-0.3-1.5-0.7l0.4-0.3c0.3,0.3,0.7,0.5,1.1,0.5h0c1,0,1.4-1,1.4-1.8
		c-0.2,0.4-0.7,0.8-1.4,0.8c-0.9,0-1.7-0.7-1.7-1.6c0-0.9,0.7-1.7,1.8-1.7c1.1,0,1.8,0.8,1.8,1.9v0.4
		C223.4,86.8,222.9,88.1,221.5,88.1L221.5,88.1z M222.9,84.9c0-0.7-0.4-1.2-1.2-1.2c-0.7,0-1.2,0.5-1.2,1.2c0,0.7,0.5,1.2,1.2,1.2
		C222.4,86,222.9,85.5,222.9,84.9z"/>
	<path display="inline" d="M227,88h-0.6l2.5-4.3h-2.5v-0.5h3.2v0.3L227,88z"/>
	<path display="inline" d="M231.8,85.1c0.2,0,0.3-0.1,0.6-0.1c1,0.1,1.4,0.6,1.4,1.4c0,0.9-0.6,1.6-1.7,1.6H232
		c-0.9,0-1.6-0.4-1.9-1l0.4-0.3c0.4,0.6,0.9,0.8,1.6,0.8h0c0.7,0,1.2-0.5,1.2-1.2c0-0.6-0.4-1-1.3-1c-0.3,0-0.6,0.1-0.8,0.2
		l-0.3-0.2l1.9-1.6h-2.3v-0.5h3.1v0.3L231.8,85.1z"/>
	<path display="inline" d="M170.9,92.8v0.3h-1.3v1.3h-0.4v-1.3H168v-0.3h1.3v-1.3h0.4v1.3H170.9z"/>
	<path display="inline" d="M175.7,92.1c0.2,0,0.3-0.1,0.6-0.1c1,0.1,1.4,0.6,1.4,1.4c0,0.9-0.6,1.6-1.7,1.6h-0.1
		c-0.9,0-1.6-0.4-1.9-1l0.4-0.3c0.4,0.6,0.9,0.8,1.6,0.8h0c0.7,0,1.2-0.5,1.2-1.2c0-0.6-0.4-1-1.3-1c-0.3,0-0.6,0.1-0.8,0.2
		l-0.3-0.2l1.9-1.6h-2.3v-0.5h3.1v0.3L175.7,92.1z"/>
	<path display="inline" d="M181.9,93.7c0,0.8-0.7,1.4-1.7,1.4h0c-1,0-1.7-0.5-1.7-1.4c0-0.6,0.4-1.1,1-1.2c-0.4-0.2-0.8-0.5-0.8-1.1
		c0-0.7,0.6-1.2,1.5-1.2h0.1c0.9,0,1.5,0.5,1.5,1.2c0,0.6-0.4,0.9-0.8,1.1C181.5,92.6,181.9,93,181.9,93.7z M181.4,93.6
		c0-0.6-0.5-1-1.2-1c-0.4,0-1.2,0.2-1.2,1c0,0.6,0.5,1,1.2,1C180.9,94.5,181.4,94.2,181.4,93.6z M180.2,92.3c0.5,0,1-0.2,1-0.8
		c0-0.6-0.5-0.8-1-0.8c-0.5,0-1,0.2-1,0.8C179.2,92,179.7,92.3,180.2,92.3z"/>
	<path display="inline" d="M189.9,92.6c0,1.4-1.1,2.5-2.5,2.5c-1.4,0-2.4-1.1-2.4-2.5c0-1.4,1.1-2.5,2.4-2.5
		C188.8,90.1,189.9,91.2,189.9,92.6z M185.6,92.6c0,1.1,0.8,1.9,1.9,1.9c1.1,0,1.9-0.8,1.9-1.9c0-1.1-0.8-1.9-1.9-1.9
		C186.4,90.7,185.6,91.5,185.6,92.6z"/>
	<path display="inline" d="M192.8,90.1c0.7,0,1.1,0.3,1.5,0.7l-0.3,0.3c-0.3-0.3-0.6-0.5-1.1-0.5l0,0c-1,0-1.4,1-1.4,1.8
		c0.2-0.4,0.7-0.8,1.4-0.8c0.9,0,1.7,0.7,1.7,1.6c0,0.9-0.7,1.7-1.8,1.7c-1.1,0-1.8-0.8-1.8-1.9l0-0.4
		C190.8,91.4,191.4,90.1,192.8,90.1L192.8,90.1z M191.4,93.3c0,0.7,0.4,1.2,1.2,1.2c0.7,0,1.2-0.5,1.2-1.2c0-0.7-0.5-1.2-1.2-1.2
		C191.9,92.2,191.4,92.7,191.4,93.3z"/>
	<path display="inline" d="M195.7,95h-0.6l2.5-4.3h-2.5v-0.5h3.2v0.3L195.7,95z"/>
	<path display="inline" d="M204.4,95h-0.5v-1h-2.7v-0.3l2.9-3.5h0.3v3.3h0.6V94h-0.6V95z M201.8,93.5h2v-2.4L201.8,93.5z"/>
	<path display="inline" d="M210.6,92.6c0,1.4-1.1,2.5-2.5,2.5c-1.4,0-2.4-1.1-2.4-2.5c0-1.4,1.1-2.5,2.4-2.5
		C209.5,90.1,210.6,91.2,210.6,92.6z M206.3,92.6c0,1.1,0.8,1.9,1.9,1.9c1.1,0,1.9-0.8,1.9-1.9c0-1.1-0.8-1.9-1.9-1.9
		C207.1,90.7,206.3,91.5,206.3,92.6z"/>
	<path display="inline" d="M213.1,95.1c-0.7,0-1.1-0.3-1.5-0.7l0.4-0.3c0.3,0.3,0.7,0.5,1.1,0.5h0c1,0,1.4-1,1.4-1.8
		c-0.2,0.4-0.7,0.8-1.4,0.8c-0.9,0-1.7-0.7-1.7-1.6c0-0.9,0.7-1.7,1.8-1.7c1.1,0,1.8,0.8,1.8,1.9v0.4
		C215.1,93.8,214.5,95.1,213.1,95.1L213.1,95.1z M214.5,91.9c0-0.7-0.4-1.2-1.2-1.2c-0.7,0-1.2,0.5-1.2,1.2c0,0.7,0.5,1.2,1.2,1.2
		C214,93,214.5,92.5,214.5,91.9z"/>
	<path display="inline" d="M218.6,95H218l2.5-4.3H218v-0.5h3.2v0.3L218.6,95z"/>
	<path display="inline" d="M224.3,95h-0.5v-1h-2.7v-0.3l2.9-3.5h0.3v3.3h0.6V94h-0.6V95z M221.8,93.5h2v-2.4L221.8,93.5z"/>
	<path display="inline" d="M232.8,92.6c0,1.4-1.1,2.5-2.5,2.5c-1.4,0-2.4-1.1-2.4-2.5c0-1.4,1.1-2.5,2.4-2.5
		C231.7,90.1,232.8,91.2,232.8,92.6z M228.5,92.6c0,1.1,0.8,1.9,1.9,1.9c1.1,0,1.9-0.8,1.9-1.9c0-1.1-0.8-1.9-1.9-1.9
		C229.3,90.7,228.5,91.5,228.5,92.6z"/>
	<path display="inline" d="M234.1,95h-0.6l2.5-4.3h-2.5v-0.5h3.2v0.3L234.1,95z"/>
	<path display="inline" d="M170.9,99.8v0.3h-1.3v1.3h-0.4v-1.3H168v-0.3h1.3v-1.3h0.4v1.3H170.9z"/>
	<path display="inline" d="M175.7,99.1c0.2,0,0.3-0.1,0.6-0.1c1,0.1,1.4,0.6,1.4,1.4c0,0.9-0.6,1.6-1.7,1.6h-0.1
		c-0.9,0-1.6-0.4-1.9-1l0.4-0.3c0.4,0.6,0.9,0.8,1.6,0.8h0c0.7,0,1.2-0.5,1.2-1.2c0-0.6-0.4-1-1.3-1c-0.3,0-0.6,0.1-0.8,0.2
		l-0.3-0.2l1.9-1.6h-2.3v-0.5h3.1v0.3L175.7,99.1z"/>
	<path display="inline" d="M181.9,100.7c0,0.8-0.7,1.4-1.7,1.4h0c-1,0-1.7-0.5-1.7-1.4c0-0.6,0.4-1.1,1-1.2
		c-0.4-0.2-0.8-0.5-0.8-1.1c0-0.7,0.6-1.2,1.5-1.2h0.1c0.9,0,1.5,0.5,1.5,1.2c0,0.6-0.4,0.9-0.8,1.1
		C181.5,99.6,181.9,100,181.9,100.7z M181.4,100.6c0-0.6-0.5-1-1.2-1c-0.4,0-1.2,0.2-1.2,1c0,0.6,0.5,1,1.2,1
		C180.9,101.5,181.4,101.2,181.4,100.6z M180.2,99.3c0.5,0,1-0.2,1-0.8c0-0.6-0.5-0.8-1-0.8c-0.5,0-1,0.2-1,0.8
		C179.2,99,179.7,99.3,180.2,99.3z"/>
	<path display="inline" d="M189.9,99.6c0,1.4-1.1,2.5-2.5,2.5c-1.4,0-2.4-1.1-2.4-2.5c0-1.4,1.1-2.5,2.4-2.5
		C188.8,97.1,189.9,98.2,189.9,99.6z M185.6,99.6c0,1.1,0.8,1.9,1.9,1.9c1.1,0,1.9-0.8,1.9-1.9c0-1.1-0.8-1.9-1.9-1.9
		C186.4,97.7,185.6,98.5,185.6,99.6z"/>
	<path display="inline" d="M192.4,102.1c-0.7,0-1.1-0.3-1.5-0.7l0.4-0.3c0.3,0.3,0.7,0.5,1.1,0.5h0c1,0,1.4-1,1.4-1.8
		c-0.2,0.4-0.7,0.8-1.4,0.8c-0.9,0-1.7-0.7-1.7-1.6c0-0.9,0.7-1.7,1.8-1.7c1.1,0,1.8,0.8,1.8,1.9v0.4
		C194.4,100.8,193.8,102.1,192.4,102.1L192.4,102.1z M193.8,98.9c0-0.7-0.4-1.2-1.2-1.2c-0.7,0-1.2,0.5-1.2,1.2
		c0,0.7,0.5,1.2,1.2,1.2C193.3,100,193.8,99.5,193.8,98.9z"/>
	<path display="inline" d="M196,97.7v1.5c0.3-0.2,0.7-0.3,1.2-0.3c1,0,1.6,0.6,1.6,1.5c0,0.8-0.6,1.6-1.7,1.6H197
		c-0.9,0-1.5-0.4-1.9-1l0.4-0.3c0.4,0.6,0.8,0.8,1.5,0.8h0c0.7,0,1.2-0.4,1.2-1.1c0-0.7-0.5-1.1-1.3-1.1c-0.5,0-1,0.2-1.3,0.4
		l-0.3-0.2v-2.3h2.9v0.5H196z"/>
	<path display="inline" d="M203.6,99.1c0.2,0,0.3-0.1,0.6-0.1c1,0.1,1.4,0.6,1.4,1.4c0,0.9-0.6,1.6-1.7,1.6h-0.1
		c-0.9,0-1.6-0.4-1.9-1l0.4-0.3c0.4,0.6,0.9,0.8,1.6,0.8h0c0.7,0,1.2-0.5,1.2-1.2c0-0.6-0.4-1-1.3-1c-0.3,0-0.6,0.1-0.8,0.2
		l-0.3-0.2l1.9-1.6h-2.3v-0.5h3.1v0.3L203.6,99.1z"/>
	<path display="inline" d="M209.5,102H209v-1h-2.7v-0.3l2.9-3.5h0.3v3.3h0.6v0.5h-0.6V102z M207,100.5h2v-2.4L207,100.5z"/>
	<path display="inline" d="M212.5,99.1c0.2,0,0.3-0.1,0.6-0.1c1,0.1,1.4,0.6,1.4,1.4c0,0.9-0.6,1.6-1.7,1.6h-0.1
		c-0.9,0-1.6-0.4-1.9-1l0.4-0.3c0.4,0.6,0.9,0.8,1.6,0.8h0c0.7,0,1.2-0.5,1.2-1.2c0-0.6-0.4-1-1.3-1c-0.3,0-0.6,0.1-0.8,0.2
		l-0.3-0.2l1.9-1.6h-2.3v-0.5h3.1v0.3L212.5,99.1z"/>
	<path display="inline" d="M217.5,102v-0.3l2.2-1.9c0.6-0.5,0.8-0.8,0.8-1.2c0-0.6-0.5-0.9-1.1-0.9l-0.1,0c-0.5,0-1,0.2-1.3,0.7
		l-0.4-0.3c0.4-0.6,1.1-0.8,1.7-0.8h0.1c0.9,0,1.6,0.6,1.6,1.4c0,0.6-0.4,1.1-1.2,1.8l-1.4,1.2h2.7v0.5H217.5z"/>
	<path display="inline" d="M222.4,102h-0.6l2.5-4.3h-2.5v-0.5h3.2v0.3L222.4,102z"/>
	<path display="inline" d="M228.5,102h-0.6l2.5-4.3h-2.5v-0.5h3.2v0.3L228.5,102z"/>
	<path display="inline" d="M232.3,102h-0.6l2.5-4.3h-2.5v-0.5h3.2v0.3L232.3,102z"/>
</g>
<g display="none">
	<path display="inline" d="M9.4,85.9c0,1.3-0.8,2.2-1.9,2.2c-1.1,0-1.9-0.8-1.9-2.2v-2.8h0.5v2.8c0,1.1,0.5,1.7,1.4,1.7
		s1.4-0.6,1.4-1.7v-2.8h0.5V85.9z"/>
	<path display="inline" d="M12.6,87.1c-0.3-0.5-0.4-0.7-0.9-0.7h-0.5V88h-0.5v-4.9h0.5V86h0.4c0.5,0,0.6-0.2,0.9-0.7l0.5-0.8h0.5
		l-0.6,1c-0.2,0.3-0.4,0.6-0.6,0.7c0.3,0.1,0.4,0.3,0.7,0.7l0.7,1.1h-0.5L12.6,87.1z"/>
	<path display="inline" d="M16.4,84.9c-1,0-1.3,0.7-1.3,1.6V88h-0.5v-3.5h0.3l0,0.9c0.3-0.7,0.8-1,1.5-1h0.1v0.5H16.4z"/>
	<path display="inline" d="M20.2,88l0-0.8C20,87.7,19.5,88,18.9,88c-0.9,0-1.7-0.8-1.7-1.8c0-1,0.7-1.8,1.7-1.8
		c0.6,0,1.1,0.3,1.4,0.8l0-0.8h0.3V88H20.2z M20.1,86.3c0-0.8-0.6-1.3-1.2-1.3c-0.7,0-1.2,0.6-1.2,1.3c0,0.8,0.6,1.3,1.2,1.3
		C19.6,87.6,20.1,87,20.1,86.3z"/>
	<path display="inline" d="M21.8,83.8c0-0.2,0.1-0.3,0.3-0.3c0.2,0,0.3,0.1,0.3,0.3c0,0.2-0.1,0.3-0.3,0.3
		C22,84.1,21.8,83.9,21.8,83.8z M21.9,84.5h0.5V88h-0.5V84.5z"/>
	<path display="inline" d="M26.8,86.1V88h-0.5v-1.9c0-0.8-0.4-1.2-1-1.2c-0.7,0-1.1,0.5-1.1,1.4V88h-0.5v-3.5H24l0,0.8
		c0.3-0.6,0.8-0.8,1.3-0.8C26.3,84.5,26.8,85.1,26.8,86.1z"/>
	<path display="inline" d="M31,85.5c0.1,0.3,0.1,0.7,0.1,0.9h-2.8c0,0.8,0.5,1.2,1.3,1.2c0.4,0,0.8-0.1,1.2-0.4l0.3,0.3
		c-0.4,0.3-0.8,0.5-1.4,0.5c-1,0-1.7-0.7-1.7-1.8c0-1,0.7-1.8,1.7-1.8C30.2,84.5,30.8,84.9,31,85.5z M28.3,86h2.3
		c0-0.1,0-0.3-0.1-0.4c-0.2-0.4-0.5-0.7-1-0.7C28.8,84.9,28.4,85.4,28.3,86z"/>
	<path display="inline" d="M32,88.8h-0.3l0.4-1.4h0.5L32,88.8z"/>
	<path display="inline" d="M38.1,86.4c-0.3-0.5-0.4-0.7-0.9-0.7h-0.8V88h-0.5v-4.9h0.5v2.1h0.7c0.5,0,0.6-0.2,0.9-0.7l0.9-1.5h0.6
		l-1,1.7c-0.3,0.4-0.4,0.6-0.6,0.7c0.2,0.1,0.4,0.3,0.7,0.8l1.1,1.7H39L38.1,86.4z"/>
	<path display="inline" d="M40.5,83.8c0-0.2,0.1-0.3,0.3-0.3c0.2,0,0.3,0.1,0.3,0.3c0,0.2-0.1,0.3-0.3,0.3
		C40.6,84.1,40.5,83.9,40.5,83.8z M40.6,84.5h0.5V88h-0.5V84.5z"/>
	<path display="inline" d="M45.3,85.5c0.1,0.3,0.1,0.7,0.1,0.9h-2.8c0,0.8,0.5,1.2,1.3,1.2c0.4,0,0.8-0.1,1.2-0.4l0.3,0.3
		c-0.4,0.3-0.8,0.5-1.4,0.5c-1,0-1.7-0.7-1.7-1.8c0-1,0.7-1.8,1.7-1.8C44.5,84.5,45.1,84.9,45.3,85.5z M42.6,86h2.3
		c0-0.1,0-0.3-0.1-0.4c-0.2-0.4-0.5-0.7-1-0.7C43.1,84.9,42.7,85.4,42.6,86z"/>
	<path display="inline" d="M47.5,88L46,84.5h0.5l1.2,2.7l1.2-2.7h0.5L47.8,88H47.5z"/>
	<path display="inline" d="M49.9,88.8h-0.3l0.4-1.4h0.5L49.9,88.8z"/>
	<path display="inline" d="M56.4,88h-0.5v-1h-2.5v-0.3l2.8-3.5h0.3v3.3h0.5V87h-0.5V88z M54,86.5h1.9v-2.4L54,86.5z"/>
	<path display="inline" d="M60.6,88l0-0.8c-0.3,0.5-0.8,0.8-1.4,0.8c-0.9,0-1.7-0.8-1.7-1.8c0-1,0.7-1.8,1.7-1.8
		c0.6,0,1.1,0.3,1.4,0.8l0-0.8H61V88H60.6z M60.5,86.3c0-0.8-0.6-1.3-1.2-1.3c-0.7,0-1.2,0.6-1.2,1.3c0,0.8,0.6,1.3,1.2,1.3
		C60,87.6,60.5,87,60.5,86.3z"/>
	<path display="inline" d="M62.4,88.8H62l0.4-1.4H63L62.4,88.8z"/>
	<path display="inline" d="M67.7,83.1c1.2,0,2,0.7,2,1.8c0,0.8-0.5,1.4-1.2,1.6c0.3,0.1,0.5,0.3,0.8,0.8l0.5,0.7h-0.6l-0.4-0.6
		c-0.4-0.6-0.6-0.7-1.1-0.8h-1V88h-0.5v-4.9H67.7z M66.8,86.1h1c0.8,0,1.5-0.4,1.5-1.3c0-0.9-0.7-1.3-1.5-1.3h-1V86.1z"/>
	<path display="inline" d="M73.9,86.3c0,1-0.8,1.8-1.7,1.8c-0.9,0-1.7-0.8-1.7-1.8c0-1,0.8-1.8,1.7-1.8
		C73.1,84.5,73.9,85.3,73.9,86.3z M71,86.3c0,0.8,0.6,1.3,1.2,1.3c0.7,0,1.2-0.5,1.2-1.3c0-0.8-0.6-1.3-1.2-1.3
		C71.5,84.9,71,85.5,71,86.3z"/>
	<path display="inline" d="M78.1,86.1V88h-0.5v-1.9c0-0.8-0.4-1.2-1-1.2c-0.7,0-1.1,0.5-1.1,1.4V88H75v-4.9h0.5v2.1
		c0.2-0.5,0.8-0.8,1.2-0.8C77.6,84.5,78.1,85.1,78.1,86.1z"/>
	<path display="inline" d="M82.4,86.1V88H82v-1.9c0-0.8-0.4-1.2-1-1.2c-0.7,0-1.1,0.5-1.1,1.4V88h-0.5v-3.5h0.3l0,0.8
		c0.3-0.6,0.8-0.8,1.3-0.8C81.9,84.5,82.4,85.1,82.4,86.1z"/>
	<path display="inline" d="M83.7,83.8c0-0.2,0.1-0.3,0.3-0.3c0.2,0,0.3,0.1,0.3,0.3c0,0.2-0.1,0.3-0.3,0.3
		C83.8,84.1,83.7,83.9,83.7,83.8z M83.7,84.5h0.5V88h-0.5V84.5z"/>
	<path display="inline" d="M88.3,88l0-0.8C88.1,87.7,87.6,88,87,88c-0.9,0-1.7-0.8-1.7-1.8c0-1,0.7-1.8,1.7-1.8c0.5,0,1,0.3,1.2,0.8
		v-2.1h0.5V88H88.3z M88.2,86.3c0-0.8-0.6-1.3-1.2-1.3c-0.7,0-1.2,0.6-1.2,1.3c0,0.8,0.6,1.3,1.2,1.3C87.7,87.6,88.2,87,88.2,86.3z"
		/>
	<path display="inline" d="M93.1,87.6c0,1.1-0.6,1.8-1.6,1.8c-0.6,0-1.1-0.2-1.4-0.5l0.3-0.3c0.3,0.2,0.7,0.4,1.2,0.4
		c0.7,0,1.1-0.4,1.1-1.2v-0.4c-0.2,0.5-0.8,0.8-1.2,0.8c-0.9,0-1.5-0.6-1.5-1.7v-1.8h0.5v1.8c0,0.8,0.4,1.2,1,1.2
		c0.7,0,1.1-0.5,1.1-1.4v-1.6h0.5V87.6z"/>
	<path display="inline" d="M97.4,86.1V88h-0.5v-1.9c0-0.8-0.4-1.2-1-1.2c-0.7,0-1.1,0.5-1.1,1.4V88h-0.5v-3.5h0.3l0,0.8
		c0.3-0.6,0.8-0.8,1.3-0.8C96.9,84.5,97.4,85.1,97.4,86.1z"/>
	<path display="inline" d="M99.8,84.5c0.5,0,1,0.3,1.3,0.7l-0.3,0.3c-0.2-0.3-0.7-0.5-1-0.5h-0.1c-0.5,0-0.8,0.2-0.8,0.6
		c0,0.3,0.1,0.4,0.7,0.5l0.4,0c0.6,0.1,1.1,0.3,1.1,1c0,0.6-0.6,1-1.3,1h0c-0.6,0-1.2-0.3-1.5-0.7l0.3-0.3c0.2,0.3,0.7,0.6,1.2,0.6
		h0c0.5,0,0.8-0.2,0.8-0.6c0-0.5-0.4-0.6-0.7-0.6l-0.4,0c-0.8-0.1-1.1-0.4-1.1-0.9C98.5,84.8,99.1,84.5,99.8,84.5L99.8,84.5z"/>
	<path display="inline" d="M104.2,87.1c-0.3-0.5-0.4-0.7-0.9-0.7h-0.5V88h-0.5v-4.9h0.5V86h0.4c0.5,0,0.6-0.2,0.9-0.7l0.5-0.8h0.5
		l-0.6,1c-0.2,0.3-0.4,0.6-0.6,0.7c0.3,0.1,0.4,0.3,0.7,0.7l0.7,1.1h-0.5L104.2,87.1z"/>
	<path display="inline" d="M108.9,88l0-0.8c-0.3,0.5-0.8,0.8-1.4,0.8c-0.9,0-1.7-0.8-1.7-1.8c0-1,0.7-1.8,1.7-1.8
		c0.6,0,1.1,0.3,1.4,0.8l0-0.8h0.3V88H108.9z M108.8,86.3c0-0.8-0.6-1.3-1.2-1.3c-0.7,0-1.2,0.6-1.2,1.3c0,0.8,0.6,1.3,1.2,1.3
		C108.2,87.6,108.8,87,108.8,86.3z"/>
	<path display="inline" d="M113.8,84.5c0.5,0,1,0.3,1.3,0.7l-0.3,0.3c-0.2-0.3-0.7-0.5-1-0.5h-0.1c-0.5,0-0.8,0.2-0.8,0.6
		c0,0.3,0.1,0.4,0.7,0.5l0.4,0c0.6,0.1,1.1,0.3,1.1,1c0,0.6-0.6,1-1.3,1h0c-0.6,0-1.2-0.3-1.5-0.7l0.3-0.3c0.2,0.3,0.7,0.6,1.2,0.6
		h0c0.5,0,0.8-0.2,0.8-0.6c0-0.5-0.4-0.6-0.7-0.6l-0.4,0c-0.8-0.1-1.1-0.4-1.1-0.9C112.5,84.8,113,84.5,113.8,84.5L113.8,84.5z"/>
	<path display="inline" d="M117,88h-0.5v-3H116v-0.5h0.5v-1.2h0.5v1.2h0.5V85H117V88z"/>
	<path display="inline" d="M120.3,84.9c-1,0-1.3,0.7-1.3,1.6V88h-0.5v-3.5h0.3l0,0.9c0.3-0.7,0.8-1,1.5-1h0.1v0.5H120.3z"/>
	<path display="inline" d="M8.7,93.5c0.1,0.3,0.1,0.7,0.1,0.9H5.8c0,0.8,0.6,1.2,1.3,1.2c0.5,0,0.9-0.1,1.2-0.4l0.3,0.3
		C8.3,95.8,7.8,96,7.2,96c-1.1,0-1.8-0.7-1.8-1.8c0-1,0.7-1.8,1.8-1.8C7.9,92.5,8.4,92.9,8.7,93.5z M5.9,94h2.4c0-0.1,0-0.3-0.1-0.4
		c-0.2-0.4-0.6-0.7-1.1-0.7C6.4,92.9,5.9,93.4,5.9,94z"/>
	<path display="inline" d="M9.6,94.2v-0.3h1.7v0.3H9.6z"/>
	<path display="inline" d="M18.6,94.1V96h-0.5v-1.9c0-0.8-0.4-1.2-1.1-1.2c-0.7,0-1.2,0.5-1.2,1.4V96h-0.5v-1.9
		c0-0.8-0.4-1.2-1.1-1.2c-0.7,0-1.2,0.5-1.2,1.4V96h-0.5v-3.5h0.4l0,0.8c0.3-0.6,0.9-0.8,1.4-0.8c0.7,0,1.2,0.3,1.4,0.9
		c0.3-0.7,0.9-0.9,1.4-0.9C18,92.5,18.6,93.1,18.6,94.1z"/>
	<path display="inline" d="M22.8,96l0-0.8C22.5,95.7,22,96,21.4,96c-1,0-1.8-0.8-1.8-1.8c0-1,0.8-1.8,1.8-1.8c0.6,0,1.2,0.3,1.4,0.8
		l0-0.8h0.4V96H22.8z M22.7,94.3c0-0.8-0.6-1.3-1.3-1.3c-0.7,0-1.3,0.6-1.3,1.3c0,0.8,0.6,1.3,1.3,1.3C22.1,95.6,22.7,95,22.7,94.3z
		"/>
	<path display="inline" d="M24.5,91.8c0-0.2,0.1-0.3,0.3-0.3c0.2,0,0.3,0.1,0.3,0.3c0,0.2-0.1,0.3-0.3,0.3
		C24.6,92.1,24.5,91.9,24.5,91.8z M24.6,92.5h0.5V96h-0.5V92.5z"/>
	<path display="inline" d="M26.5,91.1H27V96h-0.5V91.1z"/>
	<path display="inline" d="M28.7,93.6c0,0.2-0.2,0.3-0.3,0.3c-0.2,0-0.3-0.1-0.3-0.3c0-0.2,0.1-0.3,0.3-0.3
		C28.6,93.3,28.7,93.4,28.7,93.6z M28.7,95.7c0,0.2-0.2,0.3-0.3,0.3c-0.2,0-0.3-0.1-0.3-0.3c0-0.2,0.1-0.3,0.3-0.3
		C28.6,95.4,28.7,95.6,28.7,95.7z"/>
	<path display="inline" d="M32.1,91.8c0-0.2,0.1-0.3,0.3-0.3c0.2,0,0.3,0.1,0.3,0.3c0,0.2-0.1,0.3-0.3,0.3
		C32.2,92.1,32.1,91.9,32.1,91.8z M32.1,92.5h0.5V96h-0.5V92.5z"/>
	<path display="inline" d="M35.9,92.9c-1,0-1.4,0.7-1.4,1.6V96H34v-3.5h0.4l0,0.9c0.3-0.7,0.8-1,1.6-1h0.1v0.5H35.9z"/>
	<path display="inline" d="M38.3,92.5c0.5,0,1.1,0.3,1.4,0.7l-0.3,0.3c-0.2-0.3-0.7-0.5-1.1-0.5h-0.1c-0.5,0-0.8,0.2-0.8,0.6
		c0,0.3,0.1,0.4,0.7,0.5l0.4,0c0.6,0.1,1.2,0.3,1.2,1c0,0.6-0.6,1-1.4,1h0c-0.7,0-1.3-0.3-1.5-0.7l0.3-0.3c0.2,0.3,0.7,0.6,1.2,0.6
		h0c0.5,0,0.9-0.2,0.9-0.6c0-0.5-0.4-0.6-0.8-0.6l-0.4,0c-0.8-0.1-1.2-0.4-1.2-0.9C36.9,92.8,37.5,92.5,38.3,92.5L38.3,92.5z"/>
	<path display="inline" d="M40.9,91.1h0.5V96h-0.5V91.1z"/>
	<path display="inline" d="M46.1,94.3c0,1-0.8,1.8-1.8,1.8c-1,0-1.8-0.8-1.8-1.8c0-1,0.8-1.8,1.8-1.8C45.2,92.5,46.1,93.3,46.1,94.3
		z M43,94.3c0,0.8,0.6,1.3,1.3,1.3c0.7,0,1.3-0.5,1.3-1.3c0-0.8-0.6-1.3-1.3-1.3C43.6,92.9,43,93.5,43,94.3z"/>
	<path display="inline" d="M50.4,94.1V96h-0.5v-1.9c0-0.8-0.4-1.2-1.1-1.2c-0.7,0-1.2,0.5-1.2,1.4V96h-0.5v-3.5h0.4l0,0.8
		c0.3-0.6,0.9-0.8,1.4-0.8C49.9,92.5,50.4,93.1,50.4,94.1z"/>
	<path display="inline" d="M54.7,96l0-0.8c-0.3,0.5-0.8,0.8-1.4,0.8c-1,0-1.8-0.8-1.8-1.8c0-1,0.8-1.8,1.8-1.8
		c0.6,0,1.1,0.3,1.3,0.8v-2.1h0.5V96H54.7z M54.6,94.3c0-0.8-0.6-1.3-1.3-1.3c-0.7,0-1.3,0.6-1.3,1.3c0,0.8,0.6,1.3,1.3,1.3
		C54,95.6,54.6,95,54.6,94.3z"/>
	<path display="inline" d="M59.7,94.3c0,1-0.8,1.8-1.8,1.8c-1,0-1.8-0.8-1.8-1.8c0-1,0.8-1.8,1.8-1.8C58.9,92.5,59.7,93.3,59.7,94.3
		z M56.6,94.3c0,0.8,0.6,1.3,1.3,1.3c0.7,0,1.3-0.5,1.3-1.3c0-0.8-0.6-1.3-1.3-1.3C57.2,92.9,56.6,93.5,56.6,94.3z"/>
	<path display="inline" d="M64.1,94.1V96h-0.5v-1.9c0-0.8-0.4-1.2-1.1-1.2c-0.7,0-1.2,0.5-1.2,1.4V96h-0.5v-3.5h0.4l0,0.8
		c0.3-0.6,0.9-0.8,1.4-0.8C63.6,92.5,64.1,93.1,64.1,94.1z"/>
	<path display="inline" d="M70.9,94.2V95c0,0.6-0.3,0.9-0.8,0.9c-0.3,0-0.6-0.1-0.7-0.5l0-0.3c-0.3,0.5-0.8,0.8-1.4,0.8
		c-0.9,0-1.6-0.7-1.6-1.7s0.7-1.7,1.6-1.7c0.6,0,1.1,0.3,1.4,0.8l0-0.8h0.3v2.5c0,0.4,0.2,0.5,0.4,0.5c0.2,0,0.4-0.1,0.4-0.6v-0.8
		c0-1.4-1-2.5-2.5-2.5c-1.3,0-2.4,1-2.4,2.5c0,1.5,1.1,2.5,2.4,2.5c0.4,0,0.9-0.1,1.2-0.3l0.3,0.3c-0.4,0.3-0.9,0.4-1.5,0.4
		c-1.6,0-2.8-1.3-2.8-2.8c0-1.6,1.3-2.8,2.8-2.8C69.8,91.4,70.9,92.6,70.9,94.2z M66.8,94.3c0,0.7,0.6,1.3,1.2,1.3
		c0.7,0,1.2-0.5,1.2-1.3S68.7,93,68,93C67.3,93,66.8,93.5,66.8,94.3z"/>
	<path display="inline" d="M75.3,94.1V96h-0.5v-1.9c0-0.8-0.4-1.2-1.1-1.2c-0.7,0-1.2,0.5-1.2,1.4V96H72v-4.9h0.5v2.1
		c0.3-0.5,0.8-0.8,1.3-0.8C74.7,92.5,75.3,93.1,75.3,94.1z"/>
	<path display="inline" d="M79.9,94.3c0,1-0.8,1.8-1.8,1.8c-1,0-1.8-0.8-1.8-1.8c0-1,0.8-1.8,1.8-1.8C79.1,92.5,79.9,93.3,79.9,94.3
		z M76.8,94.3c0,0.8,0.6,1.3,1.3,1.3c0.7,0,1.3-0.5,1.3-1.3c0-0.8-0.6-1.3-1.3-1.3C77.4,92.9,76.8,93.5,76.8,94.3z"/>
	<path display="inline" d="M81.8,96h-0.5v-3h-0.5v-0.5h0.5v-1.2h0.5v1.2h0.5V93h-0.5V96z"/>
	<path display="inline" d="M89.5,94.1V96H89v-1.9c0-0.8-0.4-1.2-1.1-1.2c-0.7,0-1.2,0.5-1.2,1.4V96h-0.5v-1.9c0-0.8-0.4-1.2-1.1-1.2
		c-0.7,0-1.2,0.5-1.2,1.4V96h-0.5v-3.5h0.4l0,0.8c0.3-0.6,0.9-0.8,1.4-0.8c0.7,0,1.2,0.3,1.4,0.9c0.3-0.7,0.9-0.9,1.4-0.9
		C88.9,92.5,89.5,93.1,89.5,94.1z"/>
	<path display="inline" d="M93.7,96l0-0.8c-0.3,0.5-0.8,0.8-1.4,0.8c-1,0-1.8-0.8-1.8-1.8c0-1,0.8-1.8,1.8-1.8
		c0.6,0,1.2,0.3,1.4,0.8l0-0.8h0.4V96H93.7z M93.6,94.3c0-0.8-0.6-1.3-1.3-1.3c-0.7,0-1.3,0.6-1.3,1.3c0,0.8,0.6,1.3,1.3,1.3
		C93,95.6,93.6,95,93.6,94.3z"/>
	<path display="inline" d="M95.4,91.8c0-0.2,0.1-0.3,0.3-0.3c0.2,0,0.3,0.1,0.3,0.3c0,0.2-0.1,0.3-0.3,0.3
		C95.6,92.1,95.4,91.9,95.4,91.8z M95.5,92.5H96V96h-0.5V92.5z"/>
	<path display="inline" d="M97.4,91.1h0.5V96h-0.5V91.1z"/>
	<path display="inline" d="M99.6,95.7c0,0.2-0.2,0.3-0.3,0.3c-0.2,0-0.3-0.1-0.3-0.3c0-0.2,0.1-0.3,0.3-0.3
		C99.5,95.4,99.6,95.6,99.6,95.7z"/>
	<path display="inline" d="M103.7,93.1l-0.3,0.3c-0.3-0.3-0.7-0.5-1.1-0.5c-0.7,0-1.3,0.6-1.3,1.3c0,0.8,0.6,1.3,1.3,1.3
		c0.4,0,0.8-0.2,1.1-0.5l0.3,0.3c-0.3,0.4-0.8,0.6-1.4,0.6c-1,0-1.8-0.8-1.8-1.8c0-1,0.8-1.8,1.8-1.8
		C102.9,92.5,103.4,92.7,103.7,93.1z"/>
	<path display="inline" d="M108.1,94.3c0,1-0.8,1.8-1.8,1.8c-1,0-1.8-0.8-1.8-1.8c0-1,0.8-1.8,1.8-1.8
		C107.3,92.5,108.1,93.3,108.1,94.3z M105,94.3c0,0.8,0.6,1.3,1.3,1.3c0.7,0,1.3-0.5,1.3-1.3c0-0.8-0.6-1.3-1.3-1.3
		C105.6,92.9,105,93.5,105,94.3z"/>
	<path display="inline" d="M115.3,94.1V96h-0.5v-1.9c0-0.8-0.4-1.2-1.1-1.2c-0.7,0-1.2,0.5-1.2,1.4V96H112v-1.9
		c0-0.8-0.4-1.2-1.1-1.2c-0.7,0-1.2,0.5-1.2,1.4V96h-0.5v-3.5h0.4l0,0.8c0.3-0.6,0.9-0.8,1.4-0.8c0.7,0,1.2,0.3,1.4,0.9
		c0.3-0.7,0.9-0.9,1.4-0.9C114.7,92.5,115.3,93.1,115.3,94.1z"/>
</g>
<path display="none" fill="#414042" d="M64.8-18.3c-1.2,0.3-2.5,0.7-3,0.7c-0.2,0-0.2,0-0.2,0c-0.1-0.3,1.2-1,2.3-1.7
	c0.8-0.5,1.7-1,2.4-1.5c0.9-0.7,1.5-1.3,1.4-1.6c0-0.1-0.1-0.1-0.1-0.1c-0.3,0-1.1,0.4-2.9,1.4l0,0c-1.9,1.1-4.1,2.2-4.6,2.2
	c0,0,0,0,0,0c-0.2-0.2,0.6-0.8,1.4-1.4c0.7-0.5,1.5-1.1,2.2-1.8c2.6-2.7,2.7-3.3,2.5-3.5c0,0-0.1-0.1-0.2-0.1
	c-0.4,0-1.4,0.9-2.7,2.1c-0.3,0.3-0.7,0.6-1,0.9c-1.7,1.5-3.6,2.8-4,2.8c-0.1-0.2,0.4-0.6,1-1.2c0.6-0.6,1.5-1.4,2.1-2.3
	c1.5-2.2,2.7-4.9,2.3-5.2c0,0-0.1,0-0.1,0c-0.2,0-0.7,0.6-1.5,1.9c-0.6,0.8-1.2,1.8-2,2.8c-1.7,2.2-3.6,3.8-3.9,3.9
	c-0.1-0.1,0.3-0.7,0.8-1.2c0.7-0.8,1.5-1.8,2.2-3.1c1-1.9,1.6-4.1,1.2-4.5c0,0-0.1,0-0.1,0c-0.2,0-0.5,0.6-1.2,1.9
	c-0.4,0.8-0.8,1.7-1.4,2.6c-1.5,2.7-3.5,5-3.9,5c-0.1-0.1,0.3-0.7,0.6-1.2c0.4-0.6,0.8-1.4,1.2-2.2c0.7-1.6,1.1-3.7,0.8-3.8
	c0,0,0,0-0.1,0c-0.2,0-0.5,0.6-1,1.9c-0.2,0.4-0.3,0.8-0.5,1.2c-0.9,1.9-1.9,3.9-2.1,4.2c-0.4,0.4-0.9,0.9-1.5,1.4
	c-0.3,0.3-0.6,0.6-1,0.9c-0.5,0.4-2.6,1.7-4.8,3c-2.3,1.4-4.7,2.8-5.5,3.5C39.1-10,38-8.9,36.8-7.7c-1.7,1.8-3.7,3.8-4.2,3.8
	c-0.3,0-0.6,0.1-1.1,0.3c-0.8,0.2-1.7,0.5-2.4,0.5c-0.2,0-0.3,0-0.5-0.1c-0.9-0.3-2.8-1.7-2.8-1.7c0,0-0.8-0.9-1.6-1.2
	c-0.3-0.1-0.6-0.2-1.1-0.2c-0.4,0-0.7,0.1-0.8,0.1c-0.1,0-0.4-0.1-0.8-0.1c-0.7,0-1.8,0.3-1.8,2v0.1l0.1,0c0.9-0.1,1.2,0.3,1.4,0.7
	c0.1,0.1,0.1,0.2,0.2,0.2C21.6-3.2,21.8-3.1,22-3c0.2,0.2,0.5,0.3,0.5,0.4c0,0,0.1,0.2,0.2,0.3c0.7,1.4,0.9,2.2,0.9,2.3
	c-0.1,0.1-0.4,0.3-1.5,0.4c-0.1,0-0.1,0-0.3,0c-0.5,0-1.5,0.1-2.7,0.2c-0.5,0.1-1,0.2-1.6,0.3c-0.6,0.2-1.3,0.3-1.9,0.4
	c-1.3,0.2-2.5,0.3-3.2,0.3c-0.3,0-0.5,0-0.6,0c-0.2,0-0.6,0.1-1.1,0.2c-1,0.2-2.3,0.5-3.1,0.5c-0.1,0-0.2,0-0.3,0
	C6.7,2.5,6.4,2.3,6.1,2.1C6,2,5.8,1.9,5.7,1.9C5.6,1.9,5.5,2,5.5,2.1C5.3,2.5,5.6,2.7,5.9,2.8C5.9,2.9,6.1,2.9,6.1,3c0,0,0,0,0,0
	C6,3.1,5.3,3.2,4.3,3.2C3.6,3.2,2.9,3.2,2.5,3C1.9,2.9,0.6,1.9,0.2,1.2C-0.1,0.7-0.1,0.3-0.1,0c0-0.2,0-0.3-0.1-0.4
	c-0.1-0.1-0.2-0.2-0.4-0.3c-0.3-0.2-0.5-0.4-0.7-0.7c-0.1-0.2-0.2-0.5-0.3-0.7c-0.1-0.2-0.1-0.3-0.2-0.4C-1.9-2.5-2-2.6-2.1-2.6
	c-0.1,0-0.2-0.1-0.3-0.1C-2.5-2.9-2.6-3-2.7-3c-0.1-0.1-0.2-0.2-0.2-0.2c0,0-0.1,0-0.1,0.1l0,0l0,0C-2.8-0.3-1.8,0.7-0.7,2
	C-0.4,2.2-0.2,2.4,0,2.7C1,3.8,2.5,4.1,3.6,4.4c0.6,0.1,1.2,0.3,1.2,0.5c0,0.1,0,0.2-0.1,0.3C4.6,5.3,4.3,5.3,4.1,5.3
	c-0.2,0-0.3,0-0.4,0.1c0,0,0,0.1,0,0.1C3.7,5.7,4.4,6,5.1,6c0.3,0,0.6,0,0.9,0c0.5,0,0.9,0,1,0.2C7,6.5,6.7,6.8,6.4,7.2
	C6.1,7.5,5.8,7.9,5.9,8.1c0,0,0,0,0.4,1.1C2.8,13.3,1,18.4,1,23.7C1,36,11,46.1,23.4,46.1c12.4,0,22.4-10.1,22.4-22.4
	c0-0.7,0-1.5-0.1-2.2c0.1-0.2,0.2-0.5,0.2-0.8c0-0.1,0.1-0.4,0.1-0.4c0.1,0,0.3,0.1,0.4,0.2c0.3,0.2,0.7,0.4,1,0.4
	c0.1,0,0.1,0,0.2-0.1c0.3-0.2,0.2-0.6,0.2-1c0-0.1,0-0.3,0-0.3c0.1,0,0.2,0.1,0.4,0.2c0.3,0.2,0.8,0.5,1.1,0.5c0.1,0,0.2,0,0.3-0.1
	c0.4-0.2,0.1-1-0.1-1.6c-0.1-0.2-0.2-0.4-0.1-0.5c0,0,0,0,0,0c0.1,0,0.1,0,0.2,0c0.2,0,0.4,0.1,0.6,0.1c0.3,0,0.6-0.1,0.8-0.3
	c0.4-0.5-0.1-1.1-0.4-1.5c-0.1-0.1-0.2-0.3-0.2-0.3c0,0,0.1,0,0.2,0c0.2,0,0.5,0,0.7-0.3c0.2-0.3-0.1-0.7-0.4-1.1
	c-0.1-0.1-0.2-0.3-0.2-0.3c0,0,0.2-0.1,0.3-0.1c0.3-0.1,0.6-0.3,0.8-0.6c0.1-0.3-0.2-0.5-0.4-0.7c-0.1-0.1-0.2-0.2-0.2-0.2
	c0,0,0.2-0.1,0.3-0.2c0.3-0.2,0.8-0.5,0.7-0.9c0-0.2-0.7-0.4-2.5-0.9c-1-0.3-2.2-0.7-3.3-1.1c-2.5-0.9-4.8-2.1-4.9-2.2
	c-0.1-0.2-0.1-0.4,0-0.5c0.1-0.1,0.1-0.1,0.3-0.1c0.1,0,0.3,0.1,0.4,0.1c0.3,0.1,0.7,0.2,1,0.2c0.2,0,0.3,0,0.4-0.1
	c0.5-0.3,0.3-0.7,0.1-1c-0.1-0.1-0.1-0.3-0.1-0.3c0.1-0.2,0.4-0.4,0.5-0.5c0,0,0.1-0.1,0.1-0.1c0,0,0,0,0.1,0.1
	c0.1,0.1,0.2,0.3,0.4,0.3c0,0,0.1,0,0.1,0c0.3-0.1,0.5-0.5,0.6-0.7c0.1,0.1,0.2,0.1,0.4,0.1c0.2,0,0.3-0.1,0.5-0.2
	c0.4-0.3,0.4-1,0.4-1.2c0.2,0.1,0.7,0.3,1.2,0.3c0.1,0,0.2,0,0.3,0c0.4-0.1,0.5-0.6,0.5-0.9c0-0.1,0-0.1,0-0.1c0,0,0.1,0,0.2,0
	c0.1,0,0.3,0.1,0.4,0.1c0.1,0,0.3,0,0.4-0.1c0.2-0.1,0.3-0.4,0.3-0.6c0-0.2,0.1-0.3,0.2-0.4c0.1-0.1,0.3,0,0.5,0
	c0.2,0,0.4,0.1,0.5,0c0.1-0.1,0.1-0.3,0.2-0.4c0-0.1,0-0.2,0.1-0.2c0.1-0.1,0.6-0.6,0.7-0.7c0.2,0,1.2-0.3,1.4-0.7
	c0.2-0.2,0.1-0.5,0-0.8c0-0.2-0.1-0.3,0-0.4C53.7-1.6,54-2,54.3-2c0.1,0,0.2,0,0.4,0.1c0.2,0.1,0.3,0.1,0.6,0.1
	c0.2,0,0.4-0.1,0.6-0.2c0.3-0.2,0.4-0.4,0.4-0.6c0,0,0-0.1,0-0.1c0.2,0,0.7-0.1,1.1-0.3c0.3-0.2,0.2-0.5,0.1-0.8
	c0-0.1-0.1-0.3,0-0.3c0.1-0.1,0.3-0.1,0.5-0.2c0.3-0.1,0.6-0.2,0.8-0.3c0.1-0.1,0.1-0.3,0.1-0.5c0-0.2,0-0.3,0.1-0.4
	c0.1-0.1,0.3-0.2,0.5-0.2c0.2-0.1,0.5-0.1,0.6-0.3c0.1-0.2,0-0.5-0.1-0.7c-0.1-0.2-0.2-0.3-0.1-0.4c0.1-0.1,0.2-0.2,0.4-0.3
	c0.1,0,0.2-0.1,0.2-0.1c0.1-0.1,0.1-0.3,0.1-0.4c0-0.1-0.1-0.3,0-0.4c0.1-0.1,0.3-0.2,0.5-0.3c0.3-0.1,0.6-0.2,0.8-0.5
	c0.2-0.2,0.1-0.5,0-0.7c0-0.1-0.1-0.2,0-0.3c0,0,0.2-0.1,0.4-0.1c0.4-0.1,1-0.3,1.1-0.7c0.1-0.4-0.3-0.6-0.5-0.8
	c-0.2-0.1-0.3-0.2-0.3-0.3c0,0,0.2-0.1,0.4-0.1c0.3-0.1,0.6-0.1,0.9-0.2c0.5-0.2,1-0.6,0.9-1.1c-0.1-0.6-0.5-0.6-0.7-0.7
	c-0.2,0-0.3-0.1-0.3-0.2c0-0.2,0.4-0.3,0.8-0.5c0.1-0.1,0.3-0.1,0.4-0.2c0.6-0.3,1.2-0.9,1.2-1.2c0-0.3-0.4-0.3-0.5-0.3
	c-0.2,0-0.5,0-0.7,0.1c-0.2,0-0.4,0.1-0.6,0.1c-0.1,0-0.2,0-0.2,0c0,0,0,0,0,0c0.1-0.2,0.9-0.7,1.6-1l0.2-0.1
	c0.3-0.2,0.6-0.3,0.8-0.4c0.8-0.4,1.1-0.6,1.1-0.7c0-0.1-0.2-0.1-0.2-0.1C67-18.8,65.9-18.6,64.8-18.3z M10.8,22.8l0.2-1.6l0.1-0.3
	h0.7l-0.2,1.8L10.8,22.8z M10.8,24.5l0.7,0.1l0.2,1.6l0,0.2h-0.7L11,26.1L10.8,24.5z M11.2,20.3l0.2-0.7l0.6-1.7h0.6L12,19.4
	l-0.2,0.9H11.2z M13.3,16.3l-0.5,1h-0.5l0.4-0.7l0.9-1.3l0.4-0.4h0.2l0,0L13.3,16.3z M14.8,33.1l0.4,0.5l-0.4-0.3l-0.1-0.1H14.8z
	 M13.7,24.8l0.1,1.4l0,0.2l-1.5,0l-0.1-0.4l-0.1-1.4L13.7,24.8z M12.1,22.7l0.2-1.5l0.1-0.3h1.4l-0.1,1.5L12.1,22.7z M16.1,17.3
	h-0.7l0.2-0.6L16.1,17.3z M20.7,17.3l0.4-2.4l1,0l-0.3,2.4H20.7z M16,30.1l-0.4,0.5l-0.2-0.5H16z M18.2,30.1h1.9l0.4,2.2l0.1,0.2
	h-1.8l-0.2-0.4l-0.6-1.8L18.2,30.1z M18.4,27l-0.9,1.2L17.2,27H18.4z M14.3,22.4l0.1-1.5h2.1l0,1.2L14.3,22.4z M16.5,25.2l0,1l0,0.2
	h-2.1l-0.1-0.3l-0.1-1.2L16.5,25.2z M14.5,20.3l0.1-0.7l0.5-1.7h1.4l0.4,0.5l-0.3,1.9H14.5z M16.6,27l0.3,1.9l-0.4,0.6h-1.3
	l-0.5-1.7L14.6,27H16.6z M19.5,25.6l-0.6,0.8h-1.7l-0.1-1.1L19.5,25.6z M20,17.9l-0.1,0.6l-0.8-0.6H20z M19.9,28.7l0.1,0.7h-1
	L19.9,28.7z M17.1,22l0.1-1.1h1.8l0.6,0.8L17.1,22z M20.1,17.3h-1.8L17.9,17l0.6-1.8l0.2-0.3h1.8L20.1,17.3z M17.2,20.3l0.2-1.3
	l1,1.3L17.2,20.3z M17.4,30.7l0.5,1.6l0.1,0.1h-1.4l-0.5-0.8L17.4,30.7z M20.5,19l0.1-1l0-0.1l1.1,0l-0.2,1.9L20.5,19z M21.5,27.5
	l0.2,1.9h-1.1l-0.1-1.2L21.5,27.5z M16.2,15.7l0.4-0.8h1.3l0,0.2l-0.5,1.6L16.2,15.7z M13.9,27l0.1,0.8l0.4,1.6l-1.3,0l-0.1-0.2
	l-0.5-1.5L12.5,27H13.9z M14.8,30.1l0.5,1l-0.6,0.8l-0.8-1.2l-0.3-0.6H14.8z M15.7,32l0.2,0.4l0,0h-0.8L15.7,32z M21.1,32.5
	l-0.4-2.4h1.1l0.3,2.4H21.1z M13.5,17.3l0.3-0.7l0.8-1.2l0.6,0.8l-0.5,1.1H13.5z M13.2,17.9h1.3l-0.4,1.5l-0.2,0.9h-1.1h-0.3
	l0.2-0.7l0.5-1.5L13.2,17.9z M12.9,30.1l0.4,0.9l0.9,1.4l0,0l0,0l-0.1,0L13.6,32l-0.9-1.3l-0.4-0.6H12.9z M16.3,33.1l0.3,0.5
	l0.9,1.1l0.6,0.6L18,35.2l-1.2-0.9l-1.1-1.1l-0.1-0.1H16.3z M18.3,33.1l0.9,1.6l0.7,0.8h-0.3L19,35.2l-0.9-0.9l-1-1.2H18.3z
	 M19,33.1h1.7l0.4,1.5l0.4,0.9h-0.7l-0.3-0.3l-1.3-1.9L19,33.1z M21.1,12.7l-0.4,1.6H19l0.1-0.3l0.7-1.1l0.6-0.8l0.3-0.2l0.8,0
	L21.1,12.7z M19.2,12.6L18.4,14l-0.1,0.2H17l0.2-0.2l0.9-1.1l0.9-0.9l0.4-0.3l0.4,0L19.2,12.6z M17.6,12.6l-0.9,1.1l-0.4,0.6h-0.8
	l0.2-0.2l1.1-1l1.5-1.1l0.1-0.1l0,0L17.6,12.6z M14.7,14.3l-0.2,0l0.2-0.2l0.4-0.3L14.7,14.3z M11.9,27l0.7,2.4h-0.5L12,29.2
	l-0.6-1.5L11.2,27H11.9z M22.2,33.1l0.3,2.4h-0.3l-0.5-1.1l-0.4-1.4H22.2z M22.2,14.3h-0.9l0.4-1.4L22,12l0.1-0.1h0.4L22.2,14.3z
	 M9.7,24.3v0.2l0.2,1.7l0.4,1.7l0.6,1.6l0.2,0.3l0,0.1l0.1,0l0.6,1l1,1.4l0.3,0.3l0,0l0,0.1l0.1,0.2l0.2,0.1l0.1,0.1l-0.9,1.1
	l1.1-0.9l0.2,0.2l1.3,1.1l1.4,0.9l0.6,0.3l0.1,0.1l0.1,0l0.1,0l0.7,0.3l1.7,0.5l1.7,0.3l1,0.1l0.3,2.8C14.2,39.9,7.1,32.9,6.9,24
	L9.7,24.3z M22.7,10l-0.8,0l-0.1,0l-0.1,0L20,10.3l-1.7,0.5l-1.6,0.7l-1.5,0.9L14,13.7l-0.2,0.2L12.7,13l0.8,1.1l-0.2,0.2l-0.1,0
	l-0.1,0.1l0,0.1l-0.4,0.4l-1,1.4l-0.6,1.2l0,0L11,17.8l-0.6,1.6l-0.3,1.1l0,0l-0.1,0.5l-0.2,1.7V23l-2.8,0.3
	C7.1,14.4,14.2,7.4,23,7.2L22.7,10z M36.9,21.1l-0.4-1.7l-0.6-1.6l-0.1-0.2l0-0.1L35,16.3l-0.3-0.5l0,0L34,14.9l-0.4-0.4l0-0.1
	l-0.1-0.1l-0.1-0.1l-0.2-0.2l0.8-1.1L33,13.8l-0.2-0.2l-1.3-1.1l-1.5-0.9l-1.5-0.7l-1.6-0.5L25.1,10l-1-0.1l-0.3-2.8
	c8.9,0.2,15.9,7.2,16.1,16.1L37.1,23v-0.2L36.9,21.1z M34,17.3l-1.4-2.4l0,0h0.2l0.3,0.4l0.9,1.3l0.4,0.7H34z M25.1,11.3L24.9,11
	l-0.1-0.1l0.1,0l0.5,0.3H25.1z M34.9,20.3l-0.2-0.9l-0.5-1.5l0.5,0l0.1,0.1l0.6,1.5l0.2,0.7H34.9z M35.6,27l-0.2,0.7l-0.7,1.8h-0.6
	l0.6-1.6l0.2-0.8H35.6z M34.4,30.1l-0.3,0.6L33.1,32l-0.4,0.5h-0.1l0-0.1l0.9-1.4l0.5-0.9H34.4z M32.2,33.1l-0.1,0.1l-0.4,0.3
	l0.4-0.5H32.2z M24.6,14.3l-0.3-2.4h0.4l0.1,0.1l0.8,2.3H24.6z M34.7,24.6l-0.2,1.4l-0.1,0.4l-0.2,0H33l0.2-1.6L34.7,24.6z
	 M33.1,22.5L33,21l0,0h1.5l0.1,0.3l0.2,1.5L33.1,22.5z M30.7,17.3l0.5-0.6l0.2,0.6H30.7z M30.7,30.1h0.6l-0.2,0.5L30.7,30.1z
	 M28.5,17.3h-1.8l-0.4-2.4h1.8l0.6,1.7l0.1,0.4L28.5,17.3z M28.6,30.1l0.3,0.2l-0.1,0.4l-0.7,1.7h-1.8l0.4-2.4H28.6z M29.6,27
	l-0.2,1.2l-1-1.2H29.6z M26.9,28.7l0.9,0.7h-1L26.9,28.7z M27.3,21.7l0.6-0.8l1.8,0l0.1,1.1L27.3,21.7z M29.7,25.3l0,0.8l0,0.3h-1.7
	l-0.6-0.8L29.7,25.3z M30.2,27h2.1l-0.6,2.4l-0.3,0h-1l-0.4-0.5L30.2,27z M26.8,17.9l0.9,0l-0.8,0.6L26.8,17.9z M32.5,24.9l-0.2,1.5
	l-0.3,0h-1.8l0-0.2l0-1L32.5,24.9z M30.3,22.1l-0.1-1.2h2.1l0,0.3l0.1,1.2L30.3,22.1z M30.2,20.3l-0.3-1.9l0.4-0.5h1.4l0.5,1.7
	l0.1,0.7H30.2z M28.4,20.3l1-1.3l0.2,1.3H28.4z M28.9,32.2l0.5-1.6l1.3,1L30.4,32l-0.3,0.4h-1.4L28.9,32.2z M29.4,16.6L28.8,15
	l0-0.1h1.4l0.2,0.4l0.2,0.4L29.4,16.6z M25,17.3l-0.3-2.4h1l0.4,2.4H25z M25.3,19.8l-0.2-1.9h1.1l0.1,1.1L25.3,19.8z M26.3,28.3
	l-0.1,1.1h-1.1l0.2-1.9L26.3,28.3z M26.1,30.1l-0.4,2.4h-1l0.3-2.4H26.1z M31.7,32.5h-0.8l0.1-0.1l0.1-0.3L31.7,32.5z M31.6,31.1
	l0.5-1h1.2L33,30.7l-0.8,1.2L31.6,31.1z M33.5,29.5h-1.2l0.6-2.4h1.4l-0.1,0.7l-0.5,1.5L33.5,29.5z M32.9,20.3l-0.1-0.9l-0.4-1.5
	h1.3l0.6,1.7l0.2,0.7H32.9z M32.1,17.3l-0.5-1.1l0.6-0.8l0.8,1.2l0.3,0.7H32.1z M26.2,14.3l-0.5-1.6l-0.3-0.8l0.8,0l0.2,0.2l0.7,0.9
	l0.8,1.3H26.2z M26.1,33.1h1.6l-0.7,1.2l-0.7,0.9l-0.3,0.3l-0.7,0L26.1,33.1z M27.6,34.7l0.7-1.1l0.2-0.5l1.3,0l-1,1.2l-1,0.9
	l-0.5,0.3H27L27.6,34.7z M29.2,34.7l0.9-1.1l0.3-0.5l0.1,0h0.7l-0.1,0.1L30,34.3l-1.2,0.9l-0.3,0.2L29.2,34.7z M30.5,14.3l-0.4-0.6
	l-0.9-1.1L28.6,12l0.2,0.1L30,13l1.1,1.1l0.2,0.2H30.5z M28.5,14.3l-0.9-1.6L27,11.9h0.4l0.4,0.2l1,0.9l0.9,1.1l0.2,0.2H28.5z
	 M24.6,33.1h0.9l-0.8,2.2l-0.1,0.2h-0.3L24.6,33.1z M35.1,20.9h0.7l0.1,0.3l0.2,1.6v0l-0.7-0.1l-0.2-1.5l0-0.1L35.1,20.9z M36,24.5
	l-0.2,1.6l-0.1,0.3h-0.7l0.1-0.2l0.2-1.6L36,24.5z M23.7,40.1l0.4-2.8l1-0.1l1.7-0.3l1.6-0.5l0.7-0.3h0.1l0.1,0l0.1-0.1l0.5-0.3
	l1.5-0.9l1.3-1.1l0.2-0.2l1.1,0.8l-0.8-1.1l0.1-0.1l0.2-0.1l0.1-0.2l0-0.1l0,0l0.3-0.3l1-1.4l0.6-1l0.1,0l0-0.1l0-0.1l0.2-0.3
	l0.6-1.6l0.2-0.8l0,0l0.2-0.8l0.2-1.7v-0.2l2.8-0.3C39.7,32.9,32.6,39.9,23.7,40.1z"/>
<g>
	<radialGradient id="SVGID_2_" cx="20.8402" cy="19.9527" r="18.836" gradientUnits="userSpaceOnUse">
		<stop  offset="5.617980e-003" style="stop-color:#FFFCD7"/>
		<stop  offset="0.4037" style="stop-color:#C6C192"/>
		<stop  offset="1" style="stop-color:#867039"/>
	</radialGradient>
	<path fill="url(#SVGID_2_)" d="M33.3,14.1L33.3,14.1L33.2,14l-0.1-0.1l-0.6-0.6l-1.3-1.1l-1.5-0.9l-1.5-0.7L26.5,10l-1.7-0.3
		l-1.7-0.1l-1.5,0.1l-0.1,0h-0.1L19.8,10l-1.7,0.5l-1.5,0.7l-1.4,0.9l-1.3,1.1L13.2,14l-0.1,0L13,14.1l0,0.1l-0.4,0.4l-1,1.4
		L11,17.1l0,0.1l-0.2,0.3L10.1,19l-0.3,1.1l0,0.1l-0.1,0.5l-0.2,1.7v0.8l0,0.1l0,0.1l0,0v0.8l0.2,1.7l0.4,1.7l0.6,1.6l0.2,0.3l0,0.1
		l0.1,0l0.6,1l1,1.4l0.4,0.4l0,0l0,0.1l0.1,0.1l0,0.1l0.2,0.1l0.6,0.6l1.3,1.1l1.4,0.9l0.6,0.3l0.1,0.1l0.1,0h0.1l0.7,0.3l1.7,0.5
		l1.7,0.3l1.6,0.1l0.1,0h0.1l0,0l1.6-0.1l1.7-0.3l1.6-0.5l0.7-0.3H29l0.1,0l0.1-0.1l0.5-0.3l1.5-0.9l1.3-1.1l0.6-0.6l0.2-0.1
		l0.1-0.1l0-0.1l0,0l0.4-0.4l1-1.4l0.6-1l0.1,0l0-0.1v-0.1l0.2-0.3l0.6-1.6l0.2-0.9l0,0l0.2-0.8l0.2-1.7v-0.8l0,0v-0.1l0,0v-0.8
		l-0.2-1.7L36.1,19l-0.6-1.6l-0.1-0.2l0-0.1l-0.7-1.2l-0.3-0.5l-0.1-0.1l-0.6-0.9L33.3,14.1z M31.8,13.6l0.3,0.3h-0.3l-0.5-0.6
		l-0.9-0.9l0.3,0.2L31.8,13.6z M32.2,14.4h0.4l0.4,0.4l0.9,1.3l0.4,0.8h-0.6l-1.4-2.4L32.2,14.4z M31.9,14.8l0.9,1.3l0.4,0.8h-1.3
		l-1.1-2.4l-0.1-0.1h1L31.9,14.8z M31.9,17.5h1.4l0.6,1.7l0.2,0.8h-1.6L32.4,19L31.9,17.5z M34.6,17.5l0.1,0.2l0.6,1.5l0.2,0.8h-0.8
		L34.5,19l-0.6-1.6L34.6,17.5z M34.8,20.7l-0.1-0.2h0.8l0.1,0.3l0.2,1.6V23H35v-0.6l-0.2-1.6V20.7z M32.7,20.6L32.7,20.6l1.6-0.1
		l0.1,0.3l0.2,1.6V23h-1.7v-0.6L32.7,20.6z M31.9,19.2l0.1,0.8h-2.2l-0.5-2.5h2L31.9,19.2z M32.2,20.8l0.2,1.6V23h-2.3L30,20.5h2.2
		L32.2,20.8z M35.8,23.5v0.6l-0.2,1.6l-0.1,0.4h-0.8l0.1-0.3l0.2-1.7v-0.6H35.8z M34.5,23.5v0.6l-0.2,1.6l-0.1,0.4L34,26.1h-1.3
		l0.2-2v-0.6H34.5z M32.4,23.5v0.6l-0.2,2l-0.3,0h-1.9l0.1-0.3l0.1-2.3H32.4z M32.6,26.6h1.5L34,27.3l-0.5,1.5l-0.1,0.2h-1.4
		L32.6,26.6z M33.9,29l0.6-1.6l0.2-0.9h0.8l-0.2,0.7l-0.7,1.8L33.9,29L33.9,29z M31.7,29.6h1.3l-0.3,0.7l-0.9,1.3l-0.4,0.5h-1
		l0.1-0.2L31.7,29.6z M33.6,29.6h0.6l-0.4,0.7l-0.9,1.3l-0.4,0.5h-0.3l0.1-0.2l0.9-1.4L33.6,29.6z M32.1,32.6l-0.2,0.2l-1.2,1
		l-0.3,0.2l0.9-0.9l0.5-0.6H32.1z M14.5,13.6l1.2-1l0.2-0.2L15,13.3L14.5,14l0,0h-0.3L14.5,13.6z M15.1,13.9l0.3-0.3l1.1-1l1.5-1
		l0.2-0.2l0.1,0.1l-0.9,0.8l-0.9,1.1L16,13.9H15.1z M16.6,13.9l0.2-0.3l0.9-1.1l1-0.9l0.4-0.3l0.5,0L19,12.3l-0.8,1.4l-0.1,0.3H16.6
		z M14.4,14.8l0.3-0.4h1l-0.1,0.1L14.5,17h-1.3l0.4-0.8L14.4,14.8z M17.3,17.6l0-0.1h2.4l0,0L19.5,20l-2.6,0L17.3,17.6z M14.9,17.5
		h2L16.4,20h-2.2l0.1-0.8L14.9,17.5z M17,17H15l0.3-0.8l0.9-1.7h1.4l0,0.2L17,17z M13.3,14.8l0.4-0.4h0.3l-1,1.5L12.6,17l0,0H12
		l0.4-0.8L13.3,14.8z M12.9,17.6l0.1-0.2h1.4L13.9,19L13.7,20h-1.2v0l0,0h-0.4l0.2-0.8L12.9,17.6z M11.7,17.5h0.7L11.9,19L11.6,20
		h-0.8l0.2-0.8L11.7,17.5z M10.7,20.5h0.8l-0.2,1.9V23h-0.8v-0.6l0.2-1.6L10.7,20.5z M11.8,22.4l0.2-1.6l0.1-0.3h1.5l-0.2,1.9V23
		h-1.6V22.4L11.8,22.4z M14.1,20.5h2.2L16.2,23h-2.3v-0.6L14.1,20.5z M26.6,11.4h0.5l0.4,0.3l1,0.9l0.9,1.1l0.2,0.3h-1.3h-0.1
		l-0.9-1.7L26.6,11.4z M28,11.4L28,11.4l0.6,0.3l1.2,0.9l1.1,1.1l0.3,0.3h-0.9l-0.4-0.6l-0.9-1.1L28,11.4z M25.9,11.4l0.3,0.2
		l0.7,0.9l0.8,1.4h-1.8l-0.5-1.6L25,11.4L25.9,11.4z M26.1,10.9l-0.2-0.2l0.5,0.2H26.1z M24.8,10.9l-0.2-0.3l-0.2-0.3l0.3,0.1
		l0.7,0.5H24.8z M19.9,10.9l0.5-0.2l-0.2,0.2H19.9z M20.1,11.7l0.3-0.3l0.9,0l-0.4,0.9L20.4,14l-0.1,0h-1.7l0.2-0.3l0.7-1.1
		L20.1,11.7z M23.4,10.1L23.4,10.1l0.4,0.3l0.4,0.5h-0.8V10.1z M23.4,11.4h1.1l0.1,0.2l0.8,2.3h-2V11.4z M22.9,10.1v0.8l-0.8,0
		l0.4-0.5L22.9,10.1L22.9,10.1z M21.5,10.9h-0.4l-0.2,0l0.6-0.4l0.2-0.1l0,0l0.1,0l-0.2,0.3L21.5,10.9z M21.7,11.6l0.1-0.2h1.1v2.5
		h-2l0.4-1.5L21.7,11.6z M23.4,17v-2.5h2.1l0.4,2.5H23.4z M22.9,14.4V17h-2.6l0.5-2.5L22.9,14.4z M18.4,14.4h1.9L19.8,17h-2.4
		l0.7-2.2L18.4,14.4z M20.2,17.6l0-0.1l2.6,0V20H20L20.2,17.6z M23.4,20v-2.5H26l0.2,2.5H23.4z M20,20.5h2.9V23h-3L20,20.5z
		 M30.2,14.8l0.7,1.3l0.3,0.8h-1.9l-0.8-2.4l-0.1-0.2H30L30.2,14.8z M28.6,16.1l0.2,0.8h-2.3L26,14.4h1.9L28.6,16.1z M26.5,17.5
		L26.5,17.5l2.4-0.1l0.5,2.5h-2.6L26.5,17.5z M26.8,20.5l2.7,0l0.1,2.5h-2.7L26.8,20.5z M23.4,20.5l2.9,0l0.1,2.5l-3,0V20.5z
		 M16.8,20.5h2.7L19.4,23l-0.1,0h-2.6L16.8,20.5z M29.9,26.6L29.9,26.6l2.2,0l-0.7,2.6l-0.3,0h-1.6l0-0.1L29.9,26.6z M29.5,25.7
		l-0.1,0.3h-2.7l0.1-2.6l2.7,0L29.5,25.7z M26.4,23.5l-0.1,2.6h-2.9v-2.6H26.4z M31.2,29.6l-0.3,0.7l-0.7,1.3l-0.3,0.5h-1.5l0.2-0.3
		l0.7-2.2H31.2z M28.8,29.6l-0.2,0.7l-0.7,1.8H26l0.5-2.5H28.8z M26.8,26.6h2.7l-0.5,2.5h-2.4L26.8,26.6z M26.3,26.6L26,29.1h-2.6
		v-2.5H26.3z M22.9,23.5v2.6H20l-0.1-2.6L22.9,23.5z M19.4,23.5l0.1,2.6h-2.7l-0.1-2.6H19.4z M20,26.6l2.9,0v2.5h-2.6L20,26.6z
		 M19.5,26.6l0.2,2.5h-2.4l-0.5-2.5H19.5z M20.4,29.6h2.6v2.5h-2.1L20.4,29.6z M21.8,35.1l-0.5-1.1l-0.4-1.4h2v2.5H21.8z M21.2,35.1
		L21.2,35.1l-0.8,0.1l-0.3-0.3l-1.3-1.9l-0.1-0.3h1.8l0-0.1l0.5,1.6L21.2,35.1z M24.6,34.9l-0.1,0.3h-1.1v-2.5h2L24.6,34.9z
		 M23.4,35.6h0.8l-0.3,0.4l-0.4,0.3l-0.1,0V35.6z M22.1,35.6h0.8v0.7l-0.1,0l-0.4-0.3L22.1,35.6z M20.2,31.8l0.1,0.3h-1.9l-0.2-0.4
		l-0.7-2.1h2.3L20.2,31.8z M17.7,31.9l0.1,0.2h-1.5l-1-1.8l-0.3-0.7H17l0.1,0.1L17.7,31.9z M19.2,35.1l-0.5-0.3l-1-0.9l-1.1-1.3h1.4
		l0.9,1.6l0.7,0.9H19.2z M18.4,35.1l-0.7-0.3l-1.2-0.9l-1.1-1.1l-0.2-0.2h0.9l0.3,0.6l0.9,1.1L18.4,35.1z M20.1,35.6h0.2l0.2,0.1
		L20.1,35.6z M24.4,36.1L24.4,36.1l0.2-0.3l0.1-0.2h0.5L24.7,36L24.4,36.1L24.4,36.1z M21.9,36.1L21.6,36L21,35.6h0.5l0.1,0.2
		L21.9,36.1z M30.2,32.6l0.1,0h0.8l-0.2,0.2l-1.1,1.1l-1.2,0.9L28,35.1h-0.1l1-0.9l0.9-1.1L30.2,32.6z M28.2,32.6L28.2,32.6l1.4,0
		l-1.1,1.3l-1,0.9l-0.5,0.3h-0.5l0.7-0.9l0.7-1.1L28.2,32.6z M25.9,32.5l0,0.1h1.7L26.9,34l-0.7,0.9l-0.3,0.3l-0.8,0L25.9,32.5z
		 M26.2,35.6l-0.3,0.1l0.2-0.1H26.2z M23.4,29.6h2.5l-0.4,2.5h-2.1V29.6z M16.3,25.8l0,0.3h-2.2l-0.1-0.4l-0.2-1.6v-0.6h2.3
		L16.3,25.8z M14.2,26.6h2.2l0.4,2.5l0,0.1h-2l-0.5-1.8L14.2,26.6z M13.4,23.5v0.6l0.1,1.7l0.1,0.3l-1.6,0.1L12,25.7l-0.2-2.2H13.4z
		 M11.2,23.5L11.2,23.5l0.1,0.6l0.2,1.7l0.1,0.3h-0.8l-0.1-0.4l-0.2-1.6v-0.6H11.2z M11.7,26.6L11.7,26.6l0.7,2.5l0,0.1h-0.7
		l-0.1-0.3l-0.6-1.5l-0.2-0.7H11.7z M12.2,26.6h1.6l0.2,0.9l0.5,1.7l-1.4,0l-0.1-0.3l-0.5-1.5L12.2,26.6z M12.7,29.6l0.5,1l0.9,1.4
		l0.2,0.2h0l-0.3,0l-0.4-0.4l-0.9-1.3L12,29.6H12.7z M13.5,30.3l-0.3-0.7h1.3l1.1,2.4l0.1,0.1h-1l-0.4-0.5L13.5,30.3z M14.5,32.6
		l0.5,0.6l0.9,0.9l-0.2-0.2l-1.2-1l-0.2-0.2H14.5z"/>
</g>
<g display="none">
	<path display="inline" fill="#BCBEC0" d="M61.3-18c-0.1-0.6,3.1-2,4.7-3.3c1.4-1.1,1.5-1.5,1.3-1.6c-0.3,0-1.2,0.4-2.9,1.4
		c-1.9,1.1-4.5,2.4-4.7,2.2c-0.3-0.5,2.1-1.7,3.5-3.2c1.6-1.7,2.8-3.1,2.5-3.5c-0.3-0.4-2,1.3-3.9,3c-1.8,1.6-3.9,3-4.1,2.8
		c-0.3-0.4,1.8-1.7,3-3.5c1.6-2.3,2.6-4.8,2.3-5.2c-0.3-0.3-1.7,2.4-3.5,4.6c-1.7,2.2-3.8,4-4,3.9c-0.3-0.4,1.8-2,3-4.4
		c1-2,1.5-4.1,1.2-4.4c-0.3-0.3-1.2,2.2-2.5,4.4c-1.6,2.8-3.7,5.2-3.9,5c-0.2-0.2,0.9-1.7,1.7-3.5c0.7-1.7,1.1-3.6,0.8-3.8
		c-0.2-0.1-0.8,1.4-1.5,3.1c-0.8,1.9-1.9,3.9-2.2,4.2c-0.6,0.7-1.5,1.4-2.4,2.3c-0.9,0.9-8.7,5.2-10.3,6.5c-1.5,1.2-6.3,6.6-7.1,6.7
		c-0.8,0.1-3,0.9-4,0.7c-0.9-0.3-2.8-1.7-2.8-1.7s-0.8-0.9-1.5-1.2c-0.8-0.4-1.9-0.1-1.9-0.1s-2.5-0.8-2.5,1.8
		C20.9-4.8,21-4,21.3-3.8c0.3,0.3,0.9,0.6,1,0.8c0.1,0.2,1.2,2.4,1,2.7c-0.2,0.3-0.8,0.4-1.5,0.4c-0.2,0-1.5,0-3,0.3
		c-1.1,0.2-2.4,0.6-3.5,0.7c-1.9,0.2-3.4,0.3-3.7,0.4C10.8,1.6,8.1,2.3,7,2.2c-1.1-0.1-1.5-1-1.7-0.4C5,2.3,6,2.4,5.9,2.6
		C5.7,2.9,3.4,3,2.2,2.7C1.7,2.6,0.4,1.5-0.1,0.8C-0.7,0-0.3-0.5-0.5-0.7c-0.2-0.2-0.8-0.5-1.1-1C-1.9-2.1-2-2.6-2.1-2.8
		C-2.2-3-2.5-3-2.7-3.1C-3-3.4-3.2-3.7-3.2-3.5c0.3,3.2,1.5,4,3,5.7C1.3,4,4.5,3.8,4.6,4.4c0.1,0.8-1.2,0.4-1.1,0.7
		c0,0.1,0.7,0.4,1.4,0.5c0.9,0.1,1.8,0,1.9,0.2c0.2,0.4-1.2,1.4-1.1,1.9c0,0,0.5,1.5,0.5,1.5c3.3-3.2,7.4-6.7,12.4-6.7
		c6.1,0,11.6,3,15,7.6c0.1,0,0.2-0.1,0.3,0c0.3,0.1,2.8,1.6,3,2c0.1,0.2,0.8,2.4,1.8,4.6c1.2,2.4,2.7,4.7,2.9,4.7c0.4-0.1-0.1-1,0-1
		c0.1,0,1,1.2,1.5,1c0.4-0.2,0.6-0.9,0.8-0.9c0.2,0,0.6,1.2,1.2,0.9c0.6-0.3,0.5-1.4,0.7-1.5c0.2-0.1,1.2,0.8,1.6,0.6
		c0.4-0.3,0-1.1,0.1-1.3c0.1-0.2,1.2,0.9,1.8,0.6c0.5-0.3-0.3-1.9-0.2-2c0.1-0.2,1.1,0.4,1.6-0.2c0.5-0.6-0.7-1.6-0.6-1.8
		c0.1-0.2,0.7,0,1-0.3c0.3-0.4-0.6-1.3-0.6-1.4c0.1-0.1,0.8-0.3,1-0.7c0.2-0.4-0.6-0.6-0.6-0.8c0-0.2,1.1-0.5,1-1.1c0-0.3-3-1-5.7-2
		c-2.5-0.9-4.8-2.1-4.9-2.3c-0.2-0.4,0-0.7,0.3-0.7c0.5,0.1,1.4,0.4,1.8,0.2c0.7-0.4-0.1-1,0-1.3c0.1-0.3,0.6-0.6,0.7-0.6
		c0.1-0.1,0.3,0.4,0.6,0.3c0.3-0.1,0.6-0.7,0.6-0.7s0.4,0.4,0.9,0C46.6,3.9,46.4,3,46.4,3s1,0.5,1.5,0.3c0.5-0.2,0.5-0.8,0.5-1
		c0.1-0.1,0.6,0.2,1,0c0.4-0.2,0.2-0.8,0.5-1c0.3-0.2,0.8,0.2,1,0c0.2-0.2,0.1-0.5,0.3-0.6c0.2-0.1,0.7-0.7,0.7-0.7s1.1-0.3,1.4-0.6
		c0.3-0.4-0.1-0.9,0-1.1C53.4-2,53.7-2.4,54-2.5c0.3,0,0.9,0.5,1.5,0c0.6-0.5,0.3-0.7,0.3-0.7s0.7,0,1.1-0.3
		c0.4-0.3-0.1-0.9,0.1-1.1c0.2-0.2,1.1-0.2,1.3-0.5c0.2-0.3,0-0.6,0.3-0.9c0.2-0.3,0.9-0.2,1-0.6c0.2-0.3-0.4-0.9-0.3-1.1
		C59.5-7.8,59.8-7.9,60-8c0.2-0.1-0.1-0.6,0.1-0.8c0.2-0.3,1.1-0.3,1.3-0.7c0.2-0.4-0.2-0.8,0-0.9c0.1-0.2,1.4-0.3,1.5-0.8
		c0.1-0.6-0.8-0.7-0.8-1c0-0.2,0.7-0.2,1.3-0.4c0.5-0.2,1-0.6,0.9-1.1c-0.1-0.9-1-0.5-1-0.9c0-0.3,0.7-0.4,1.3-0.7
		c0.6-0.3,1.1-0.8,1.1-1.1c0-0.6-1.8,0.1-2-0.2c-0.2-0.2,0.8-0.8,1.8-1.3c1-0.5,1.9-0.9,1.9-1.1C67.2-19.5,61.4-17.5,61.3-18z"/>
</g>
<path fill="#BCBEC0" d="M23.1,1.2C11,1.2,1.1,11.1,1.1,23.3c0,12.2,9.9,22.1,22.1,22.1c12.2,0,22.1-9.9,22.1-22.1
	C45.2,11.1,35.3,1.2,23.1,1.2z M23.1,40.1c-9.3,0-16.9-7.5-16.9-16.9c0-9.3,7.5-16.9,16.9-16.9c9.3,0,16.9,7.5,16.9,16.9
	C40,32.6,32.5,40.1,23.1,40.1z"/>
<linearGradient id="SVGID_3_" gradientUnits="userSpaceOnUse" x1="0.7656" y1="23.2558" x2="45.52" y2="23.2558">
	<stop  offset="0" style="stop-color:#868148"/>
	<stop  offset="0.2846" style="stop-color:#ABAA94"/>
	<stop  offset="0.6131" style="stop-color:#D9D089"/>
	<stop  offset="0.6352" style="stop-color:#DCD388"/>
	<stop  offset="1" style="stop-color:#735F2E"/>
</linearGradient>
<path fill="url(#SVGID_3_)" d="M23.1,45.6c-12.3,0-22.4-10-22.4-22.4c0-12.3,10-22.4,22.4-22.4c12.3,0,22.4,10,22.4,22.4
	C45.5,35.6,35.5,45.6,23.1,45.6z M23.1,1.5c-12,0-21.7,9.7-21.7,21.7S11.2,45,23.1,45c12,0,21.7-9.7,21.7-21.7S35.1,1.5,23.1,1.5z
	 M23.1,40.4C13.7,40.4,6,32.7,6,23.3c0-9.5,7.7-17.2,17.2-17.2c9.5,0,17.2,7.7,17.2,17.2C40.3,32.7,32.6,40.4,23.1,40.4z M23.1,6.7
	C14,6.7,6.6,14.1,6.6,23.3c0,9.1,7.4,16.5,16.5,16.5c9.1,0,16.5-7.4,16.5-16.5C39.7,14.1,32.3,6.7,23.1,6.7z"/>
<g>
	<path fill="#ED1C24" d="M6.3,30.6l0.5-0.2l0.5,1.1l-0.5,0.2l-0.1-0.3l-1.6,0.8l0.1,0.3l-0.5,0.2l-0.5-1.1l0.5-0.2l0.1,0.3L6.4,31
		L6.3,30.6z"/>
	<path fill="#ED1C24" d="M5.9,28l-1.3,1.8l1.7-0.5l0.2,0.5l-2.7,0.9l-0.1-0.3L5,28.5L3.3,29l-0.2-0.5l2.7-0.9L5.9,28z"/>
	<path fill="#ED1C24" d="M5.5,25.9l0.1,0.5l-2.3,0.4l0.1,0.8l-0.5,0.1l-0.3-2.1l0.5-0.1l0.1,0.8L5.5,25.9z"/>
	<path fill="#ED1C24" d="M3.6,22.9l0.5,0l0,1.2l0.6,0l0-1.3l0.5,0l0.1,1.9l-2.8,0.1l-0.1-1.9l0.5,0l0,1.3l0.6,0L3.6,22.9z"/>
	<path fill="#ED1C24" d="M2.6,21c0.1-0.8,0.6-1.2,1.2-1.1c0.4,0,0.7,0.3,0.8,0.7c0.1-0.1,0.2-0.2,0.5-0.4L5.5,20l-0.1,0.6l-0.3,0.1
		C4.8,21,4.7,21,4.7,21.3l0,0.3l0.7,0.1l-0.1,0.5l-2.8-0.3L2.6,21z M4.1,21.6l0.1-0.5c0-0.4-0.1-0.7-0.5-0.7c-0.4,0-0.6,0.2-0.6,0.6
		L3,21.4L4.1,21.6z"/>
	<path fill="#ED1C24" d="M6.1,17.8L4,18.6l1.7,0.5l-0.1,0.5l-2.7-0.7L3,18.5L5,17.7l-1.7-0.5l0.1-0.5l2.7,0.7L6.1,17.8z"/>
	<path fill="#ED1C24" d="M6.6,16.5L6.3,17l-2.1-2.2l0.1-0.3l3,0.1l-0.3,0.6l-0.6,0l-0.4,0.9L6.6,16.5z M5.8,15.7l0.3-0.6l-0.8,0
		L5.8,15.7z"/>
	<path fill="#ED1C24" d="M8.1,13.6L7.8,14l-1.9-1.2l-0.4,0.7L5,13.2l1.1-1.8l0.4,0.3l-0.4,0.7L8.1,13.6z"/>
	<path fill="#ED1C24" d="M9.2,11.2l0.4,0.3l-0.8,1l-0.4-0.3l0.2-0.3l-1.4-1.1L7,11.1l-0.4-0.3l0.8-1l0.4,0.3l-0.2,0.3L9,11.5
		L9.2,11.2z"/>
	<path fill="#ED1C24" d="M11.1,8.2c0.5,0.6,0.5,1.5-0.1,2c-0.6,0.5-1.5,0.5-2-0.1C8.4,9.5,8.5,8.6,9,8.1C9.6,7.5,10.5,7.6,11.1,8.2z
		 M9.4,9.7c0.4,0.4,0.9,0.4,1.3,0.1c0.4-0.3,0.4-0.9,0-1.3c-0.4-0.4-0.9-0.4-1.3-0.1C9,8.8,9,9.3,9.4,9.7z"/>
	<path fill="#ED1C24" d="M14,7.9l-2.1-0.8l1,1.5l-0.5,0.3l-1.5-2.4l0.3-0.2l2.1,0.8l-1-1.5l0.5-0.3l1.5,2.4L14,7.9z"/>
	<path fill="#ED1C24" d="M15.2,7.2l-0.6,0.2l-0.1-3l0.3-0.1l2.2,2.1l-0.6,0.3l-0.4-0.4l-0.9,0.4L15.2,7.2z M15.2,6.1l0.6-0.2
		l-0.6-0.6L15.2,6.1z"/>
	<path fill="#ED1C24" d="M17.5,6.3l-0.8-2.7l0.5-0.2l0.6,2.2l1.2-0.3l0.1,0.5L17.5,6.3z"/>
	<path fill="#ED1C24" d="M23.3,2.6c0.8,0,1.2,0.5,1.2,1.1c0,0.4-0.2,0.7-0.6,0.9C24,4.6,24.2,4.7,24.3,5l0.2,0.4l-0.6,0l-0.2-0.3
		c-0.2-0.3-0.3-0.4-0.6-0.4l-0.3,0l0,0.7l-0.6,0l0-2.8L23.3,2.6z M22.9,4.2l0.5,0C23.7,4.2,24,4,24,3.6c0-0.4-0.3-0.5-0.6-0.5
		l-0.5,0L22.9,4.2z"/>
	<path fill="#ED1C24" d="M27.1,4.1L27,4.6l-1.2-0.2L25.7,5L27,5.2l-0.1,0.5l-1.8-0.3l0.4-2.8L27.3,3l-0.1,0.5L26,3.3l-0.1,0.6
		L27.1,4.1z"/>
	<path fill="#ED1C24" d="M29.2,3.4c0.4,0.1,0.7,0.4,0.9,0.8l-0.4,0.2C29.5,4.2,29.2,4,29,3.9l0,0c-0.2-0.1-0.5-0.1-0.6,0.2
		c-0.1,0.2,0.1,0.3,0.4,0.4L29,4.6c0.5,0.2,0.9,0.6,0.7,1.1c-0.2,0.5-0.7,0.7-1.3,0.5l0,0c-0.5-0.2-0.9-0.5-1-0.9l0.4-0.2
		c0.1,0.2,0.3,0.5,0.7,0.6l0,0c0.3,0.1,0.6,0,0.6-0.2C29.2,5.3,29,5.2,28.8,5L28.6,5c-0.5-0.2-0.8-0.5-0.7-1
		C28,3.4,28.6,3.3,29.2,3.4L29.2,3.4z"/>
	<path fill="#ED1C24" d="M33,5.5l-0.5,0.1c-0.1-0.2-0.3-0.4-0.5-0.6c-0.4-0.2-1,0-1.2,0.4c-0.2,0.5,0,1,0.4,1.2
		c0.2,0.1,0.5,0.1,0.7,0.1l0.2,0.5c-0.4,0.1-0.8,0.1-1.2,0c-0.7-0.3-1-1.2-0.7-1.9c0.3-0.7,1.2-1,1.9-0.7C32.7,4.8,32.9,5.2,33,5.5z
		"/>
	<path fill="#ED1C24" d="M35,8.3C34.6,9,33.9,9,33.4,8.6c-0.5-0.3-0.7-1-0.2-1.6l0.9-1.3L34.5,6l-0.9,1.3c-0.3,0.4-0.2,0.7,0.1,0.9
		c0.2,0.2,0.6,0.2,0.9-0.2l0.9-1.3L36,7L35,8.3z"/>
	<path fill="#ED1C24" d="M37.3,9.7l-0.4,0.4l-0.9-0.8l-0.4,0.5l1,0.9L36.2,11l-1.4-1.3l1.9-2L38.2,9l-0.4,0.4l-1-0.9l-0.4,0.4
		L37.3,9.7z"/>
	<path fill="#ED1C24" d="M41.1,12.9c0.2,0.3,0.2,0.8,0.1,1.2l-0.5-0.1c0-0.3,0-0.6-0.1-0.8l0,0c-0.1-0.2-0.3-0.4-0.5-0.3
		c-0.2,0.1-0.1,0.3,0,0.5l0.1,0.2c0.2,0.5,0.3,1-0.2,1.3c-0.5,0.3-1,0-1.3-0.5l0,0c-0.3-0.5-0.3-1-0.1-1.3l0.5,0.1
		c-0.1,0.2-0.1,0.5,0.1,0.9l0,0c0.2,0.3,0.4,0.4,0.6,0.3c0.2-0.1,0.2-0.4,0-0.6l-0.1-0.2c-0.2-0.5-0.2-1,0.2-1.2
		C40.3,12.1,40.8,12.4,41.1,12.9L41.1,12.9z"/>
	<path fill="#ED1C24" d="M41.6,16.8L41.2,17l-0.5-1.1l-0.6,0.2l0.5,1.2l-0.5,0.2l-0.7-1.7l2.6-1.1l0.7,1.7l-0.5,0.2l-0.5-1.2
		l-0.6,0.2L41.6,16.8z"/>
	<path fill="#ED1C24" d="M43.2,18.3c0.2,0.8-0.2,1.3-0.7,1.4c-0.4,0.1-0.8,0-1-0.4c0,0.1-0.2,0.3-0.4,0.5l-0.3,0.3l-0.1-0.6l0.2-0.2
		c0.3-0.3,0.3-0.4,0.3-0.6l-0.1-0.3l-0.7,0.2l-0.1-0.5l2.7-0.7L43.2,18.3z M41.6,18.3l0.1,0.4c0.1,0.4,0.3,0.6,0.7,0.5
		c0.3-0.1,0.5-0.4,0.4-0.8l-0.1-0.4L41.6,18.3z"/>
	<path fill="#ED1C24" d="M40.9,21.5l2.7-1.4l0.1,0.6L42,21.6l1.9,0.5l0.1,0.6L41,21.8L40.9,21.5z"/>
	<path fill="#ED1C24" d="M41.5,24.7l-0.5,0l0.1-1.2l0.5,0l0,0.3l1.8,0.1l0-0.3l0.5,0l-0.1,1.2l-0.5,0l0-0.3l-1.8-0.1L41.5,24.7z"/>
	<path fill="#ED1C24" d="M42.9,28l-0.3-0.4c0.2-0.1,0.3-0.4,0.4-0.6c0.1-0.5-0.2-0.9-0.7-1c-0.5-0.1-1,0.2-1.1,0.7
		c0,0.3,0,0.5,0.2,0.7L41,27.7c-0.2-0.3-0.3-0.7-0.3-1.1c0.1-0.8,0.9-1.3,1.7-1.2c0.8,0.1,1.3,0.9,1.2,1.7
		C43.4,27.5,43.2,27.8,42.9,28z"/>
	<path fill="#ED1C24" d="M41.4,30.3l-0.5-0.2l0.4-1.2l-0.6-0.2l-0.4,1.3l-0.5-0.2l0.6-1.8L43,29l-0.6,1.8L42,30.6l0.4-1.3l-0.6-0.2
		L41.4,30.3z"/>
	<path fill="#ED1C24" d="M41.7,32.5c-0.2,0.4-0.5,0.6-0.9,0.8l-0.1-0.5c0.2-0.1,0.5-0.3,0.6-0.5l0,0c0.1-0.2,0.2-0.5-0.1-0.6
		c-0.2-0.1-0.3,0.1-0.5,0.3l-0.1,0.2c-0.3,0.5-0.7,0.8-1.2,0.5c-0.5-0.2-0.6-0.8-0.3-1.4l0,0c0.3-0.5,0.7-0.8,1-0.8l0.1,0.5
		c-0.2,0-0.5,0.2-0.7,0.6l0,0c-0.1,0.3-0.1,0.5,0.1,0.6c0.2,0.1,0.4-0.1,0.5-0.3l0.1-0.2c0.3-0.5,0.7-0.7,1.1-0.5
		C41.9,31.4,42,31.9,41.7,32.5L41.7,32.5z"/>
</g>
<g>
	<g>
		<g>
			<g>
				<g>
					<g>
						<polygon fill="#ED1C24" points="21.1,23.3 23.1,23.3 14.2,14.3 						"/>
					</g>
					<g>
						<polygon fill="#FFFFFF" points="23.1,21.3 14.2,14.3 23.1,23.3 						"/>
					</g>
				</g>
				<g>
					<path fill="#ED1C24" d="M21,23.5l-8.2-10.6l10.6,8.2l0,2.4H21z M15.6,15.7l5.7,7.3l1.6,0v-1.6L15.6,15.7z"/>
				</g>
			</g>
			<g>
				<g>
					<g>
						<polygon fill="#ED1C24" points="25.1,23.3 23.1,23.3 32.1,32.2 						"/>
					</g>
					<g>
						<polygon fill="#FFFFFF" points="23.1,25.3 32.1,32.2 23.1,23.3 						"/>
					</g>
				</g>
				<g>
					<path fill="#ED1C24" d="M33.5,33.6l-10.6-8.2V23h2.4L33.5,33.6z M23.4,25.1l7.3,5.7L25,23.5h-1.6V25.1z"/>
				</g>
			</g>
		</g>
		<g>
			<g>
				<g>
					<g>
						<polygon fill="#ED1C24" points="23.1,25.3 23.1,23.3 14.2,32.2 						"/>
					</g>
					<g>
						<polygon fill="#FFFFFF" points="21.1,23.3 14.2,32.2 23.1,23.3 						"/>
					</g>
				</g>
				<g>
					<path fill="#ED1C24" d="M12.8,33.6L21,23h2.4l0,2.4L12.8,33.6z M21.3,23.5l-5.7,7.3l7.3-5.7v-1.6H21.3z"/>
				</g>
			</g>
			<g>
				<g>
					<g>
						<polygon fill="#ED1C24" points="23.1,21.3 23.1,23.3 32.1,14.3 						"/>
					</g>
					<g>
						<polygon fill="#FFFFFF" points="25.1,23.3 32.1,14.3 23.1,23.3 						"/>
					</g>
				</g>
				<g>
					<path fill="#ED1C24" d="M25.3,23.5h-2.4v-2.4l10.6-8.2L25.3,23.5z M23.4,23l1.6,0l5.7-7.3l-7.3,5.7V23z"/>
				</g>
			</g>
		</g>
	</g>
	<g>
		<g>
			<g>
				<g>
					<g>
						<polygon fill="#ED1C24" points="21.3,21.4 23.1,23.3 23.1,6.5 						"/>
					</g>
					<g>
						<polygon fill="#FFFFFF" points="25,21.4 23.1,6.5 23.1,23.3 						"/>
					</g>
				</g>
				<g>
					<path fill="#ED1C24" d="M23.1,23.6L21,21.5l2.1-17l2.1,17L23.1,23.6z M21.5,21.3l1.6,1.6l1.6-1.6L23.1,8.4L21.5,21.3z"/>
				</g>
			</g>
			<g>
				<g>
					<g>
						<polygon fill="#ED1C24" points="25,25.1 23.1,23.3 23.1,40.1 						"/>
					</g>
					<g>
						<polygon fill="#FFFFFF" points="21.3,25.1 23.1,40.1 23.1,23.3 						"/>
					</g>
				</g>
				<g>
					<path fill="#ED1C24" d="M23.1,42L21,25l2.1-2.1l2.1,2.1L23.1,42z M21.5,25.2l1.6,12.9l1.6-12.9l-1.6-1.6L21.5,25.2z"/>
				</g>
			</g>
		</g>
		<g>
			<g>
				<g>
					<g>
						<polygon fill="#ED1C24" points="21.3,25.1 23.1,23.3 6.3,23.3 						"/>
					</g>
					<g>
						<polygon fill="#FFFFFF" points="21.3,21.4 6.3,23.3 23.1,23.3 						"/>
					</g>
				</g>
				<g>
					<path fill="#ED1C24" d="M21.4,25.4l-17-2.1l17-2.1l2.1,2.1L21.4,25.4z M8.3,23.3l12.9,1.6l1.6-1.6l-1.6-1.6L8.3,23.3z"/>
				</g>
			</g>
			<g>
				<g>
					<g>
						<polygon fill="#ED1C24" points="25,21.4 23.1,23.3 39.9,23.3 						"/>
					</g>
					<g>
						<polygon fill="#FFFFFF" points="25,25.1 39.9,23.3 23.1,23.3 						"/>
					</g>
				</g>
				<g>
					<path fill="#ED1C24" d="M24.9,25.4l-2.1-2.1l2.1-2.1l17,2.1L24.9,25.4z M23.5,23.3l1.6,1.6L38,23.3l-12.9-1.6L23.5,23.3z"/>
				</g>
			</g>
		</g>
	</g>
</g>
<g>
	<polygon fill="#6B582A" points="16.3,39.8 15.7,39.6 14.6,42.2 16.3,42.9 16.5,42.4 15.3,41.9 	"/>
	<path fill="#6B582A" d="M18.9,40.7c-0.8-0.2-1.5,0.2-1.8,1c-0.2,0.8,0.2,1.6,1,1.8c0.8,0.2,1.6-0.2,1.8-1
		C20.1,41.7,19.7,40.9,18.9,40.7z M19.4,42.3c-0.1,0.5-0.6,0.8-1.1,0.6c-0.5-0.1-0.7-0.6-0.6-1.1c0.1-0.5,0.6-0.8,1.1-0.6
		C19.2,41.4,19.5,41.8,19.4,42.3z"/>
	<polygon fill="#6B582A" points="22.2,43.1 21,41.2 20.7,41.2 20.4,44 21,44 21.2,42.3 22.3,44.2 22.6,44.2 22.9,41.4 22.4,41.3 	
		"/>
	<path fill="#6B582A" d="M24.4,41.3l-1,0.1l0.2,2.8l1-0.1c0.8-0.1,1.4-0.7,1.3-1.5C25.9,41.8,25.2,41.3,24.4,41.3z M24.6,43.6
		l-0.4,0L24,41.9l0.4,0c0.5,0,0.9,0.3,0.9,0.8C25.4,43.2,25.1,43.6,24.6,43.6z"/>
	<path fill="#6B582A" d="M27.5,40.8c-0.8,0.2-1.2,1-1.1,1.7c0.2,0.8,1,1.2,1.7,1.1c0.8-0.2,1.2-1,1.1-1.7
		C29.1,41.1,28.3,40.6,27.5,40.8z M28.1,43.1c-0.5,0.1-0.9-0.2-1.1-0.7c-0.1-0.5,0.2-1,0.6-1.1c0.5-0.1,0.9,0.2,1.1,0.7
		C28.8,42.5,28.5,43,28.1,43.1z"/>
	<polygon fill="#6B582A" points="32.5,42.1 31.4,39.5 30.9,39.7 31.6,41.4 29.7,40.2 29.4,40.4 30.4,43 30.9,42.8 30.3,41.1 
		32.1,42.3 	"/>
</g>
<g display="none">
	<g display="inline">
		<path fill="#ED1C24" d="M87.2-13.8v1.2h-2.9v-1.2h0.8V-18h-0.8v-1.2h2.9v1.2h-0.8v4.1H87.2z"/>
		<path fill="#ED1C24" d="M93.5-12.6l-3.1-4.1v4.1h-1.3v-6.6h0.8l3.1,4.1v-4.1h1.3v6.6H93.5z"/>
		<path fill="#ED1C24" d="M98.6-12.6h-1.3V-18h-1.8v-1.2h4.9v1.2h-1.8V-12.6z"/>
		<path fill="#ED1C24" d="M105.9-16.5v1.2h-2.8v1.5h3.1v1.2h-4.4v-6.6h4.4v1.2h-3.1v1.4H105.9z"/>
		<path fill="#ED1C24" d="M109.8-19.2c1.8,0,2.9,1.1,2.9,2.5c0,1-0.5,1.7-1.4,2.1c0.3,0.2,0.6,0.5,1,1.2l0.6,0.9h-1.5l-0.4-0.7
			c-0.5-0.8-0.7-0.9-1.3-0.9h-0.7v1.6h-1.3v-6.6H109.8z M108.9-15.4h1.1c0.8,0,1.5-0.4,1.5-1.3c0-0.8-0.7-1.3-1.5-1.3h-1.1V-15.4z"
			/>
		<path fill="#ED1C24" d="M118.5-12.6l-3.1-4.1v4.1h-1.3v-6.6h0.8L118-15v-4.1h1.3v6.6H118.5z"/>
		<path fill="#ED1C24" d="M122-12.6h-1.4l2.7-6.6h0.8l2.7,6.6h-1.4l-0.5-1.2h-2.3L122-12.6z M122.9-15h1.4l-0.7-1.8L122.9-15z"/>
		<path fill="#ED1C24" d="M129.9-12.6h-1.3V-18h-1.8v-1.2h4.9v1.2h-1.8V-12.6z"/>
		<path fill="#ED1C24" d="M135.9-13.8v1.2H133v-1.2h0.8V-18H133v-1.2h2.9v1.2h-0.8v4.1H135.9z"/>
		<path fill="#ED1C24" d="M144.1-15.9c0,1.9-1.5,3.4-3.3,3.4c-1.8,0-3.3-1.5-3.3-3.4c0-1.8,1.5-3.4,3.3-3.4
			C142.6-19.2,144.1-17.7,144.1-15.9z M138.7-15.9c0,1.3,0.9,2.1,2,2.1c1.2,0,2.1-0.9,2.1-2.1c0-1.3-0.9-2.1-2.1-2.1
			C139.6-18,138.7-17.1,138.7-15.9z"/>
		<path fill="#ED1C24" d="M149.9-12.6l-3.1-4.1v4.1h-1.3v-6.6h0.8l3.1,4.1v-4.1h1.3v6.6H149.9z"/>
		<path fill="#ED1C24" d="M153.4-12.6H152l2.7-6.6h0.8l2.7,6.6h-1.4l-0.5-1.2h-2.3L153.4-12.6z M154.3-15h1.4l-0.7-1.8L154.3-15z"/>
		<path fill="#ED1C24" d="M159.3-12.6v-6.6h1.3v5.3h3v1.2H159.3z"/>
		<path fill="#ED1C24" d="M70.9-11.1c1.8,0,2.9,1.1,2.9,2.5c0,1-0.5,1.7-1.4,2.1c0.3,0.2,0.6,0.5,1,1.2l0.6,0.9h-1.5L72-5.2
			c-0.5-0.8-0.7-0.9-1.3-0.9H70v1.6h-1.3v-6.6H70.9z M70-7.4H71c0.8,0,1.5-0.4,1.5-1.3c0-0.8-0.7-1.3-1.5-1.3H70V-7.4z"/>
		<path fill="#ED1C24" d="M79.4-8.5v1.2h-2.8v1.5h3.1v1.2h-4.4v-6.6h4.4v1.2h-3.1v1.4H79.4z"/>
		<path fill="#ED1C24" d="M83.3-11.2c0.9,0,1.9,0.5,2.5,1.1L85-9.3c-0.5-0.4-1.2-0.6-1.7-0.6h-0.1c-0.4,0-1.1,0.2-1.1,0.7
			c0,0.4,0.5,0.6,1.1,0.6l0.5,0.1C85-8.4,86-7.9,86-6.5c0,1.2-1.1,2-2.6,2h-0.1c-1.3,0-2.3-0.6-2.8-1.3l0.8-0.8
			c0.3,0.4,1,0.9,1.9,0.9h0.1c0.8,0,1.3-0.3,1.3-0.8c0-0.6-0.5-0.7-1.2-0.8L83-7.4c-1.3-0.1-2.2-0.6-2.2-1.8
			C80.8-10.4,81.9-11.2,83.3-11.2L83.3-11.2z"/>
		<path fill="#ED1C24" d="M92.9-10.1L92-9.3c-0.4-0.4-1-0.6-1.6-0.6c-1.1,0-2,0.9-2,2.1c0,1.3,0.9,2.1,2,2.1c0.6,0,1.2-0.2,1.6-0.6
			l0.8,0.8c-0.6,0.7-1.5,1.1-2.5,1.1c-1.8,0-3.3-1.5-3.3-3.4c0-1.8,1.5-3.4,3.3-3.4C91.4-11.2,92.3-10.8,92.9-10.1z"/>
		<path fill="#ED1C24" d="M99.7-7.3c0,1.9-1.3,2.8-2.7,2.8c-1.4,0-2.7-0.9-2.7-2.8v-3.8h1.3v3.8c0,1.2,0.7,1.6,1.4,1.6
			c0.7,0,1.4-0.4,1.4-1.6v-3.8h1.3V-7.3z"/>
		<path fill="#ED1C24" d="M105.7-8.5v1.2h-2.8v1.5h3.1v1.2h-4.4v-6.6h4.4v1.2h-3.1v1.4H105.7z"/>
		<path fill="#ED1C24" d="M112.8-11.2c0.9,0,1.9,0.5,2.5,1.1l-0.8,0.8c-0.5-0.4-1.2-0.6-1.7-0.6h-0.1c-0.4,0-1.1,0.2-1.1,0.7
			c0,0.4,0.5,0.6,1.1,0.6l0.5,0.1c1.3,0.2,2.3,0.7,2.3,2c0,1.2-1.1,2-2.6,2h-0.1c-1.3,0-2.3-0.6-2.8-1.3l0.8-0.8
			c0.3,0.4,1,0.9,1.9,0.9h0.1c0.8,0,1.3-0.3,1.3-0.8c0-0.6-0.5-0.7-1.2-0.8l-0.5-0.1c-1.3-0.1-2.2-0.6-2.2-1.8
			C110.2-10.4,111.3-11.2,112.8-11.2L112.8-11.2z"/>
		<path fill="#ED1C24" d="M121.1-8.5v1.2h-2.8v1.5h3.1v1.2H117v-6.6h4.4v1.2h-3.1v1.4H121.1z"/>
		<path fill="#ED1C24" d="M125-11.1c1.8,0,2.9,1.1,2.9,2.5c0,1-0.5,1.7-1.4,2.1c0.3,0.2,0.6,0.5,1,1.2l0.6,0.9h-1.5l-0.4-0.7
			c-0.5-0.8-0.7-0.9-1.3-0.9h-0.7v1.6h-1.3v-6.6H125z M124.1-7.4h1.1c0.8,0,1.5-0.4,1.5-1.3c0-0.8-0.7-1.3-1.5-1.3h-1.1V-7.4z"/>
		<path fill="#ED1C24" d="M131.2-4.6l-2.7-6.6h1.4l1.6,4.2l1.6-4.2h1.4L132-4.6H131.2z"/>
		<path fill="#ED1C24" d="M138.9-5.8v1.2H136v-1.2h0.8v-4.1H136v-1.2h2.9v1.2h-0.8v4.1H138.9z"/>
		<path fill="#ED1C24" d="M146-10.1l-0.8,0.8c-0.4-0.4-1-0.6-1.6-0.6c-1.1,0-2,0.9-2,2.1c0,1.3,0.9,2.1,2,2.1c0.6,0,1.2-0.2,1.6-0.6
			l0.8,0.8c-0.6,0.7-1.5,1.1-2.5,1.1c-1.8,0-3.3-1.5-3.3-3.4c0-1.8,1.5-3.4,3.3-3.4C144.5-11.2,145.3-10.8,146-10.1z"/>
		<path fill="#ED1C24" d="M151.6-8.5v1.2h-2.8v1.5h3.1v1.2h-4.4v-6.6h4.4v1.2h-3.1v1.4H151.6z"/>
		<path fill="#ED1C24" d="M155.5-11.2c0.9,0,1.9,0.5,2.5,1.1l-0.8,0.8c-0.5-0.4-1.2-0.6-1.7-0.6h-0.1c-0.4,0-1.1,0.2-1.1,0.7
			c0,0.4,0.5,0.6,1.1,0.6l0.5,0.1c1.3,0.2,2.3,0.7,2.3,2c0,1.2-1.1,2-2.6,2h-0.1c-1.3,0-2.3-0.6-2.8-1.3l0.8-0.8
			c0.3,0.4,1,0.9,1.9,0.9h0.1c0.8,0,1.3-0.3,1.3-0.8c0-0.6-0.5-0.7-1.2-0.8l-0.5-0.1C153.9-7.5,153-8,153-9.2
			C153-10.4,154-11.2,155.5-11.2L155.5-11.2z"/>
		<g>
			<path fill="#ED1C24" d="M162.8-4.6V-9h0.9v3.6h2v0.8H162.8z"/>
			<path fill="#ED1C24" d="M167.8-4.6H167v-3.6h-1.2V-9h3.3v0.8h-1.2V-4.6z"/>
			<path fill="#ED1C24" d="M171.5-9c1.2,0,2.3,0.9,2.3,2.2c0,1.3-1,2.2-2.3,2.2H170V-9H171.5z M171.5-5.4c0.8,0,1.4-0.5,1.4-1.4
				c0-0.9-0.6-1.4-1.4-1.4h-0.7v2.8H171.5z"/>
		</g>
	</g>
	<linearGradient id="SVGID_4_" gradientUnits="userSpaceOnUse" x1="60.5645" y1="-0.8169" x2="181.8926" y2="-0.8169">
		<stop  offset="0" style="stop-color:#868148"/>
		<stop  offset="0.2846" style="stop-color:#ABAA94"/>
		<stop  offset="0.6131" style="stop-color:#C5BE7D"/>
		<stop  offset="0.6352" style="stop-color:#C7BF7B"/>
		<stop  offset="1" style="stop-color:#735F2E"/>
	</linearGradient>
	
		<line display="inline" fill="none" stroke="url(#SVGID_4_)" stroke-width="0.75" stroke-miterlimit="10" x1="60.6" y1="-0.8" x2="181.9" y2="-0.8"/>
	<linearGradient id="SVGID_5_" gradientUnits="userSpaceOnUse" x1="75.5791" y1="-22.9165" x2="166.8779" y2="-22.9165">
		<stop  offset="0" style="stop-color:#868148"/>
		<stop  offset="0.2846" style="stop-color:#ABAA94"/>
		<stop  offset="0.6131" style="stop-color:#C5BE7D"/>
		<stop  offset="0.6352" style="stop-color:#C7BF7B"/>
		<stop  offset="1" style="stop-color:#735F2E"/>
	</linearGradient>
	
		<line display="inline" fill="none" stroke="url(#SVGID_5_)" stroke-width="0.75" stroke-miterlimit="10" x1="75.6" y1="-22.9" x2="166.9" y2="-22.9"/>
</g>
</svg>
